<?xml version="1.0" standalone="no"?>
<!DOCTYPE svg PUBLIC "-//W3C//DTD SVG 20010904//EN"
 "http://www.w3.org/TR/2001/REC-SVG-20010904/DTD/svg10.dtd">
<svg version="1.0" xmlns="http://www.w3.org/2000/svg"
 width="500.000000pt" height="500.000000pt" viewBox="0 0 500.000000 500.000000"
 preserveAspectRatio="xMidYMid meet">
<metadata>
Created by potrace 1.16, written by Peter Selinger 2001-2019
</metadata>
<g transform="translate(0.000000,500.000000) scale(0.100000,-0.100000)"
fill="#000000" stroke="none">
<path d="M2640 4295 l0 -705 -700 0 -700 0 0 -290 0 -290 700 0 700 0 0 -1505
0 -1505 295 0 295 0 0 1505 0 1505 635 0 635 0 0 290 0 290 -635 0 -635 0 0
705 0 705 -295 0 -295 0 0 -705z"/>
<path d="M3730 2221 l0 -58 53 -7 c28 -4 67 -9 85 -12 l32 -6 0 -597 0 -596
-96 -44 c-83 -39 -95 -47 -90 -65 3 -12 6 -29 6 -38 0 -17 36 -18 619 -18
l619 0 6 43 c3 23 8 140 12 259 l7 217 -24 5 c-13 3 -57 7 -98 8 l-74 3 -41
-147 c-23 -80 -45 -150 -49 -154 -9 -9 -426 -46 -444 -39 -10 3 -13 126 -13
569 l0 564 95 46 c81 39 95 50 95 70 0 59 18 56 -356 56 l-344 0 0 -59z"/>
<path d="M110 2206 l0 -54 90 -17 90 -17 0 -57 c0 -31 -7 -276 -15 -546 -8
-269 -15 -506 -15 -526 0 -36 -1 -37 -100 -84 -101 -49 -106 -55 -94 -102 l6
-23 308 0 c342 0 320 -5 320 69 l0 37 -97 19 -96 18 5 321 c5 261 3 354 -12
496 -16 165 -17 201 -5 169 2 -8 95 -266 206 -574 110 -308 202 -562 204 -564
4 -3 205 33 245 45 10 2 88 202 220 558 113 305 207 550 209 544 2 -6 -2 -74
-9 -152 -9 -90 -12 -264 -11 -483 2 -244 -1 -343 -8 -343 -6 0 -50 -19 -96
-41 -86 -42 -92 -49 -79 -96 l6 -23 359 0 359 0 0 54 0 54 -95 18 c-52 10 -99
20 -105 24 -8 5 -29 765 -30 1080 l0 85 90 43 c75 37 90 48 90 67 0 57 10 55
-274 55 l-261 0 -204 -560 c-112 -308 -206 -558 -209 -555 -2 2 -93 253 -202
557 l-198 553 -296 3 -296 2 0 -54z"/>
</g>
</svg>
