<svg width="400" height="400" xmlns="http://www.w3.org/2000/svg" xml:space="preserve" enable-background="new 0 0 1400 980" version="1.1">

 <g>
  <title>Layer 1</title>
  <rect stroke="null" id="svg_4" height="404.48818" width="400.44109" fill="#444444" y="0.52235" x="-0.052"/>
  <g stroke="null" id="svg_53">
   <g stroke="null" id="svg_54">
    <g stroke="null" id="svg_55">
     <path stroke="null" id="svg_56" d="m349.00072,186.61983c0.95107,2.33622 2.32483,4.99102 4.33264,7.11486c3.59293,3.71672 8.66529,5.2034 10.99012,5.73436c-0.4227,-2.86718 -2.00781,-9.34489 -5.60074,-13.06161c-3.6986,-3.71672 -8.87664,-4.24768 -11.30715,-4.24768l-0.10567,0c0,0 -0.10567,0 -0.10567,0c-0.63405,0 -1.16242,-0.42477 -1.26809,-1.16811c-1.05674,-8.07059 -2.85321,-16.03498 -5.28371,-23.6808c0,-0.10619 -0.10567,-0.31858 -0.10567,-0.42477c0,-0.53096 0.21135,-0.95573 0.73972,-1.16811c0.21135,-0.10619 0.31702,-0.10619 0.52837,-0.10619c0.4227,0 0.84539,0.21238 1.05674,0.63715c1.37377,2.33622 3.48725,5.3096 6.44613,7.22105c3.48725,2.33622 7.60855,2.76099 10.14473,2.76099c0,0 0,0 0,0c0,0 0,0 0,0c0,0 0,0 0.10567,0c0.21135,0 0.4227,0 0.73972,0c-0.31702,-0.84954 -0.84539,-2.01765 -1.47944,-3.29195c-1.37377,-2.54861 -3.38158,-5.52198 -6.02343,-7.22105c-2.32483,-1.48669 -4.86102,-1.91145 -7.08018,-1.91145c-2.11349,0 -3.90995,0.42477 -4.75534,0.63715c-0.10567,0 -0.21135,0 -0.31702,0c-0.52837,0 -0.95107,-0.31858 -1.16242,-0.84954c-0.84539,-2.54861 -1.79646,-4.99102 -2.85321,-7.43343l-1.37377,-3.39814l-0.21135,-0.31858l-1.69079,-3.50433c-1.26809,-2.54861 -2.64186,-5.09721 -4.01562,-7.64582c-0.10567,-0.21238 -0.21135,-0.42477 -0.21135,-0.63715c0,-0.31858 0.10567,-0.74334 0.4227,-0.95573c0.21135,-0.21238 0.52837,-0.31858 0.73972,-0.31858c0.31702,0 0.52837,0.10619 0.84539,0.31858c1.90214,1.69907 4.22697,3.50433 6.9745,4.56625c2.00781,0.74334 4.01562,0.95573 5.91776,0.95573l0,0c2.53618,0 4.86102,-0.53096 6.23478,-0.84954c-0.52837,-0.84954 -1.26809,-1.91145 -2.21916,-3.07957c-2.00781,-2.44241 -4.75534,-4.99102 -7.92557,-6.15913c-1.37377,-0.42477 -2.64186,-0.53096 -4.01562,-0.53096l0,0c-3.59293,0 -6.65748,1.2743 -8.13692,2.12384c-0.21135,0.10619 -0.31702,0.10619 -0.52837,0.10619c-0.4227,0 -0.73972,-0.21238 -1.05674,-0.53096c-4.22697,-6.79628 -8.87664,-13.27399 -14.05468,-19.22074c-0.21135,-0.21238 -0.31702,-0.53096 -0.31702,-0.84954c0,-0.31858 0.10567,-0.63715 0.31702,-0.84954c0.21135,-0.31858 0.63405,-0.42477 0.95107,-0.42477c0.21135,0 0.4227,0.10619 0.63405,0.21238c2.11349,1.48669 5.28371,3.29195 8.66529,3.82291c0.63405,0.10619 1.26809,0.10619 1.90214,0.10619l0,0c3.6986,0 7.18585,-1.48669 8.98231,-2.44241c-0.63405,-0.63715 -1.47944,-1.38049 -2.43051,-2.23003c-2.21916,-1.80526 -5.17804,-3.61053 -8.24259,-3.9291c-0.31702,0 -0.63405,0 -1.05674,0c-4.96669,0 -8.98231,2.97337 -10.2504,4.03529c-0.21135,0.21238 -0.52837,0.31858 -0.73972,0.31858c-0.31702,0 -0.63405,-0.10619 -0.84539,-0.42477c-1.79646,-1.91145 -3.48725,-3.82291 -5.38939,-5.52198l-2.43051,-2.44241l-0.31702,-0.10619l-2.85321,-2.54861c-2.11349,-1.80526 -4.22697,-3.61053 -6.44613,-5.3096c-0.31702,-0.21238 -0.52837,-0.63715 -0.52837,-1.06192c0,-0.21238 0,-0.42477 0.10567,-0.63715c0.21135,-0.42477 0.63405,-0.74334 1.05674,-0.74334c0.10567,0 0.21135,0 0.4227,0.10619c2.11349,0.74334 4.75534,1.2743 7.3972,1.2743c0.21135,0 0.52837,0 0.73972,0c4.86102,-0.31858 9.19366,-3.39814 11.0958,-4.99102c-0.63405,-0.42477 -1.58511,-1.06192 -2.64186,-1.69907c-2.32483,-1.2743 -5.38939,-2.44241 -8.45394,-2.54861l0,0l-0.21135,0c-0.4227,0 -0.95107,0 -1.37377,0.10619c-5.28371,0.63715 -9.19366,4.56625 -10.6731,6.37152c-0.21135,0.31858 -0.63405,0.42477 -0.95107,0.42477c-0.21135,0 -0.4227,-0.10619 -0.63405,-0.21238c-6.34046,-4.56625 -12.89226,-8.60155 -19.86676,-12.10588c-0.4227,-0.21238 -0.73972,-0.63715 -0.73972,-1.16811c0,-0.10619 0,-0.31858 0.10567,-0.42477c0.21135,-0.53096 0.63405,-0.84954 1.16242,-0.84954c0.10567,0 0.21135,0 0.21135,0c1.47944,0.31858 3.2759,0.53096 5.17804,0.53096c1.37377,0 2.85321,-0.10619 4.22697,-0.53096c4.33264,-1.16811 7.71422,-4.67244 9.29934,-6.5839c-0.4227,-0.21238 -0.95107,-0.42477 -1.58511,-0.63715c-1.79646,-0.63715 -4.22697,-1.2743 -6.76315,-1.2743c-1.26809,0 -2.43051,0.10619 -3.59293,0.53096c-5.17804,1.69907 -8.13692,6.47771 -9.08799,8.17678c-0.21135,0.42477 -0.63405,0.63715 -1.05674,0.63715c-0.21135,0 -0.31702,0 -0.52837,-0.10619c-2.32483,-1.06192 -4.54399,-2.12384 -6.86883,-3.07957l-3.06455,-1.2743l-0.4227,0l-3.59293,-1.2743c-2.53618,-0.95573 -5.17804,-1.69907 -7.8199,-2.54861c-0.52837,-0.10619 -0.95107,-0.63715 -0.95107,-1.2743c0,0 0,-0.10619 0,-0.10619c0.10567,-0.63715 0.52837,-1.16811 1.16242,-1.16811c2.43051,-0.10619 5.38939,-0.63715 8.03124,-1.80526c4.43832,-2.23003 7.3972,-6.69009 8.66529,-8.92012c-1.26809,-0.31858 -3.2759,-0.63715 -5.60074,-0.63715c-2.43051,0 -5.17804,0.42477 -7.50287,1.69907c-4.75534,2.6548 -6.9745,7.75201 -7.8199,9.98204c-0.21135,0.53096 -0.63405,0.84954 -1.16242,0.84954c-0.10567,0 -0.21135,0 -0.31702,0c-7.3972,-1.91145 -14.90007,-3.29195 -22.50862,-4.03529c-0.63405,-0.10619 -1.05674,-0.63715 -1.05674,-1.16811c0,0 0,0 0,-0.10619c0,-0.63715 0.4227,-1.16811 1.05674,-1.2743c2.53618,-0.42477 5.91776,-1.2743 8.77096,-3.29195c3.6986,-2.76099 5.70641,-7.32724 6.5518,-9.66346c-0.10567,0 -0.21135,0 -0.31702,0c0,0 0,0 -0.10567,0c-2.74753,0 -7.8199,0.53096 -11.30715,3.18576c-4.22697,3.29195 -5.49506,9.13251 -5.81208,10.93777c-0.10567,0.63715 -0.63405,1.06192 -1.16242,1.06192l0,0l0,-0.31858l-0.10567,0.31858c-2.53618,-0.21238 -5.07236,-0.31858 -7.50287,-0.31858l-3.6986,0l0,0l-3.6986,0c-2.64186,0 -5.17804,0.10619 -7.8199,0.31858l0,0c-0.52837,0 -1.05674,-0.42477 -1.16242,-0.95573c0,-0.10619 0,-0.21238 0,-0.31858c0,-0.53096 0.31702,-0.95573 0.73972,-1.16811c2.11349,-0.95573 4.54399,-2.33622 6.44613,-4.46006c3.48725,-3.82291 4.86102,-9.13251 5.28371,-11.68111c-2.64186,0.42477 -8.45394,2.01765 -11.94119,5.84056c-3.48725,3.82291 -4.1213,9.45108 -4.22697,11.99969c0,0.63715 -0.52837,1.16811 -1.05674,1.2743c-7.71422,0.84954 -15.32277,2.44241 -22.71997,4.56625c-0.10567,0 -0.21135,0 -0.31702,0c-0.52837,0 -0.95107,-0.31858 -1.16242,-0.84954c-0.10567,-0.10619 -0.10567,-0.31858 -0.10567,-0.42477c0,-0.53096 0.21135,-0.95573 0.73972,-1.16811c2.32483,-1.16811 5.38939,-3.29195 7.3972,-6.47771c2.64186,-4.03529 3.06455,-8.92012 3.17023,-11.36254c-2.32483,0.84954 -7.50287,3.18576 -10.03906,7.32724c-1.90214,2.86718 -2.32483,6.26532 -2.32483,8.81393c0,1.69907 0.21135,2.97337 0.31702,3.61053c0,0.10619 0,0.21238 0,0.21238c0,0.53096 -0.31702,1.06192 -0.84539,1.2743c-2.43051,0.74334 -4.75534,1.48669 -7.18585,2.33622l-3.59293,1.2743l-0.10567,0l-0.31702,0l-3.17023,1.2743c-2.43051,0.95573 -4.75534,2.12384 -7.08018,3.18576c-0.21135,0.10619 -0.31702,0.10619 -0.52837,0.10619c-0.4227,0 -0.73972,-0.21238 -1.05674,-0.53096c-0.10567,-0.21238 -0.21135,-0.53096 -0.21135,-0.74334c0,-0.31858 0.10567,-0.74334 0.4227,-0.95573c1.69079,-1.69907 3.48725,-3.9291 4.54399,-6.5839c1.26809,-2.86718 1.58511,-5.84056 1.58511,-8.38916c0,0 0,0 0,-0.10619c0,-1.69907 -0.21135,-3.18576 -0.31702,-4.24768c0,0 -0.10567,0 -0.10567,0.10619c-0.84539,0.42477 -1.90214,1.16811 -3.06455,2.01765c-2.32483,1.80526 -4.86102,4.46006 -6.23478,7.75201c-0.84539,2.12384 -1.16242,4.24768 -1.16242,6.15913c0,2.86718 0.63405,5.3096 1.05674,6.69009c0,0.10619 0.10567,0.31858 0.10567,0.42477c0,0.53096 -0.21135,0.95573 -0.63405,1.16811c-6.86883,3.71672 -13.52631,7.96439 -19.86676,12.63684c-0.21135,0.10619 -0.4227,0.21238 -0.73972,0.21238c-0.31702,0 -0.63405,-0.10619 -0.95107,-0.42477c-0.21135,-0.21238 -0.31702,-0.53096 -0.31702,-0.84954c0,-0.31858 0.10567,-0.63715 0.31702,-0.84954c1.69079,-2.01765 3.90995,-5.09721 4.75534,-8.92012c0.4227,-1.38049 0.52837,-2.86718 0.52837,-4.24768l0,0c0,-3.07957 -0.73972,-5.84056 -1.26809,-7.43343c-0.63405,0.53096 -1.58511,1.38049 -2.43051,2.33622c-1.90214,2.01765 -3.80427,4.99102 -4.54399,8.28297c-0.21135,1.06192 -0.31702,2.01765 -0.31702,3.18576l0,0c0,4.35387 1.90214,8.07059 2.53618,9.2387c0.10567,0.21238 0.21135,0.42477 0.21135,0.63715c0,0.42477 -0.21135,0.74334 -0.52837,1.06192c-2.00781,1.59288 -4.01562,3.18576 -5.91776,4.88483l-2.95888,2.54861l-0.10567,0l-0.31702,0.10619l-2.43051,2.44241c-1.90214,1.80526 -3.6986,3.82291 -5.49506,5.73436c-0.21135,0.21238 -0.52837,0.42477 -0.84539,0.42477c-0.21135,0 -0.52837,-0.10619 -0.73972,-0.21238c-0.31702,-0.21238 -0.52837,-0.63715 -0.52837,-1.06192c0,-0.21238 0,-0.42477 0.10567,-0.53096c1.05674,-2.23003 1.90214,-4.88483 2.00781,-7.96439c0,-0.42477 0,-0.74334 0,-1.16811c0,0 0,-0.10619 0,-0.10619c0,-4.77864 -2.00781,-9.13251 -3.17023,-11.15015c0,0 0,0 0,0.10619c-0.63405,0.74334 -1.37377,1.80526 -2.21916,3.07957c-1.58511,2.54861 -3.17023,6.15913 -3.2759,9.87585c0,0.21238 0,0.42477 0,0.63715l0,0c0,5.2034 2.95888,9.55727 4.43832,11.25634c0.21135,0.21238 0.31702,0.53096 0.31702,0.84954c0,0.31858 -0.10567,0.63715 -0.31702,0.84954c-5.17804,6.15913 -9.82771,12.74303 -13.949,19.7517c-0.21135,0.42477 -0.63405,0.63715 -1.05674,0.63715c-0.21135,0 -0.31702,0 -0.52837,-0.10619c-0.4227,-0.21238 -0.63405,-0.63715 -0.63405,-1.16811c0,-0.10619 0,-0.31858 0.10567,-0.42477c0.73972,-2.01765 1.47944,-4.77864 1.47944,-7.75201c0,-0.84954 -0.10567,-1.69907 -0.21135,-2.54861c-0.63405,-4.88483 -3.38158,-8.81393 -4.86102,-10.61919c-0.31702,0.63715 -0.73972,1.38049 -1.16242,2.33622c-0.95107,2.23003 -1.79646,5.2034 -1.79646,8.28297c0,0.74334 0.10567,1.48669 0.21135,2.23003c0.73972,5.73436 5.28371,9.55727 6.5518,10.513c0.31702,0.21238 0.52837,0.63715 0.52837,1.06192c0,0.21238 -0.10567,0.42477 -0.21135,0.63715c-1.26809,2.33622 -2.53618,4.56625 -3.59293,7.00867l-1.79646,3.71672l0,0l-1.47944,3.39814c-1.05674,2.54861 -2.00781,5.09721 -2.95888,7.75201c-0.21135,0.53096 -0.63405,0.84954 -1.16242,0.84954c-0.10567,0 -0.10567,0 -0.21135,0c-0.52837,-0.10619 -0.95107,-0.63715 -0.95107,-1.2743l0,0c0,0 0,0 0,-0.10619c0,-0.31858 0,-0.63715 0,-0.84954c0,-2.23003 -0.31702,-4.77864 -1.05674,-7.22105c-1.79646,-5.2034 -5.70641,-8.70774 -7.60855,-10.19442c-0.10567,0.42477 -0.21135,0.84954 -0.4227,1.38049c-0.4227,1.69907 -0.84539,4.14148 -0.84539,6.69009c0,2.12384 0.31702,4.24768 0.95107,6.26532c1.79646,5.09721 6.44613,7.96439 8.66529,9.02631c0.4227,0.21238 0.73972,0.74334 0.73972,1.16811c0,0.10619 0,0.21238 -0.10567,0.42477c-2.32483,7.75201 -3.90995,15.8226 -4.86102,23.99937c0,0.42477 -0.31702,0.74334 -0.63405,0.95573l0,0.21238l-0.63405,0c-0.63405,0 -1.16242,-0.53096 -1.16242,-1.16811c-0.21135,-2.76099 -0.95107,-6.47771 -2.85321,-9.66346c-2.53618,-4.14148 -6.65748,-6.5839 -8.77096,-7.53963c0,0.42477 0,1.06192 0,1.69907c0,3.07957 0.52837,7.8582 2.64186,11.25634c2.85321,4.67244 8.45394,6.15913 10.14473,6.47771c0.63405,0.10619 0.95107,0.63715 0.95107,1.2743c0,0 0,0.10619 0,0.10619c-0.21135,2.6548 -0.4227,5.3096 -0.4227,7.96439l-0.10567,3.82291l0,0.21238l0.10567,3.9291c0.10567,2.86718 0.21135,5.73436 0.52837,8.60155c0,0 0,0.10619 0,0.10619c0,0.63715 -0.31702,1.06192 -0.95107,1.2743c-0.10567,0 -0.21135,0 -0.31702,0c-0.52837,0 -0.95107,-0.31858 -1.16242,-0.74334c-0.95107,-2.33622 -2.32483,-4.99102 -4.33264,-7.11486c-3.59293,-3.71672 -8.66529,-5.2034 -10.99012,-5.73436c0.4227,2.86718 2.00781,9.34489 5.60074,13.06161c3.6986,3.71672 8.87664,4.14148 11.30715,4.14148c0,0 0,0 0,0c0,0 0,0 0.10567,0c0,0 0.10567,0 0.21135,0c0.52837,0 1.05674,0.53096 1.05674,1.06192c1.05674,8.07059 2.85321,16.03498 5.28371,23.6808c0,0.10619 0.10567,0.31858 0.10567,0.42477c0,0.53096 -0.31702,0.95573 -0.73972,1.16811c-0.21135,0.10619 -0.31702,0.10619 -0.52837,0.10619c-0.4227,0 -0.84539,-0.21238 -1.05674,-0.63715c-1.37377,-2.33622 -3.48725,-5.3096 -6.44613,-7.22105c-3.48725,-2.33622 -7.60855,-2.76099 -10.14473,-2.76099l0,0l-0.10567,0l0,0c-0.21135,0 -0.4227,0 -0.63405,0c0,0 0,0 0,0c0.31702,0.84954 0.84539,2.01765 1.47944,3.29195c1.37377,2.54861 3.38158,5.52198 6.02343,7.22105c2.32483,1.48669 4.86102,1.91145 7.08018,1.91145c2.11349,0 3.90995,-0.42477 4.75534,-0.63715c0.10567,0 0.21135,0 0.31702,0c0.52837,0 0.95107,0.31858 1.16242,0.84954c0.84539,2.54861 1.79646,4.99102 2.85321,7.43343l1.37377,3.29195l0.21135,0.31858l1.69079,3.50433c1.26809,2.54861 2.64186,5.09721 4.01562,7.64582c0.10567,0.21238 0.21135,0.42477 0.21135,0.63715c0,0.42477 -0.10567,0.74334 -0.4227,1.06192c-0.21135,0.21238 -0.52837,0.31858 -0.73972,0.31858c-0.31702,0 -0.52837,-0.10619 -0.84539,-0.31858c-1.90214,-1.69907 -4.22697,-3.50433 -6.9745,-4.56625c-2.00781,-0.74334 -4.01562,-0.95573 -5.91776,-0.95573l0,0c-2.53618,0 -4.86102,0.53096 -6.23478,0.84954c0.52837,0.84954 1.26809,1.91145 2.21916,3.07957c2.00781,2.44241 4.75534,4.99102 7.92557,6.15913c1.37377,0.42477 2.74753,0.53096 4.01562,0.53096c3.59293,0 6.65748,-1.2743 8.24259,-2.01765c0.21135,-0.10619 0.31702,-0.10619 0.52837,-0.10619c0.4227,0 0.84539,0.21238 1.05674,0.63715c4.22697,6.79628 8.87664,13.1678 14.05468,19.22074c0.21135,0.21238 0.31702,0.53096 0.31702,0.84954c0,0.31858 -0.10567,0.63715 -0.31702,0.84954c-0.21135,0.31858 -0.63405,0.42477 -0.95107,0.42477c-0.21135,0 -0.4227,-0.10619 -0.63405,-0.21238c-2.11349,-1.48669 -5.28371,-3.29195 -8.66529,-3.82291c-0.63405,-0.10619 -1.26809,-0.10619 -1.90214,-0.10619l0,0c-3.6986,0 -7.18585,1.48669 -8.98231,2.44241c0.63405,0.63715 1.47944,1.38049 2.53618,2.23003c2.21916,1.80526 5.17804,3.61053 8.24259,3.9291c0.31702,0 0.63405,0 0.95107,0l0,0c4.96669,0 8.98231,-2.97337 10.2504,-4.03529c0.21135,-0.21238 0.52837,-0.31858 0.73972,-0.31858c0.31702,0 0.63405,0.10619 0.84539,0.42477c1.79646,1.91145 3.48725,3.82291 5.38939,5.62817l2.43051,2.44241l0.31702,0.10619l2.85321,2.54861c2.11349,1.80526 4.33264,3.61053 6.44613,5.3096c0.31702,0.21238 0.52837,0.63715 0.52837,1.06192c0,0.21238 0,0.42477 -0.10567,0.63715c-0.21135,0.42477 -0.63405,0.74334 -1.05674,0.74334c-0.10567,0 -0.21135,0 -0.4227,-0.10619c-2.11349,-0.74334 -4.75534,-1.2743 -7.3972,-1.2743c-0.21135,0 -0.52837,0 -0.73972,0c-4.86102,0.31858 -9.19366,3.39814 -11.0958,4.99102c0.63405,0.42477 1.58511,1.06192 2.64186,1.59288c2.32483,1.2743 5.49506,2.54861 8.66529,2.54861c0,0 0,0 0,0l0,0c0.4227,0 0.95107,0 1.37377,-0.10619c5.28371,-0.63715 9.19366,-4.56625 10.6731,-6.37152c0.21135,-0.31858 0.52837,-0.42477 0.95107,-0.42477c0.21135,0 0.52837,0.10619 0.63405,0.21238c6.34046,4.56625 12.89226,8.60155 19.86676,12.10588c0.4227,0.21238 0.63405,0.74334 0.63405,1.16811c0,0.10619 0,0.21238 -0.10567,0.42477c-0.21135,0.53096 -0.63405,0.84954 -1.16242,0.84954c-0.10567,0 -0.21135,0 -0.21135,0c-1.47944,-0.31858 -3.2759,-0.53096 -5.17804,-0.53096c-1.37377,0 -2.85321,0.10619 -4.22697,0.53096c-4.33264,1.16811 -7.71422,4.67244 -9.29934,6.5839c0.4227,0.21238 0.95107,0.42477 1.58511,0.63715c1.79646,0.63715 4.22697,1.2743 6.76315,1.2743c1.26809,0 2.43051,-0.10619 3.6986,-0.53096c5.17804,-1.69907 8.13692,-6.47771 9.08799,-8.17678c0.21135,-0.42477 0.63405,-0.63715 1.05674,-0.63715c0.21135,0 0.31702,0 0.52837,0.10619c2.32483,1.06192 4.54399,2.12384 6.86883,3.07957l3.06455,1.2743l0.4227,0l3.59293,1.2743c2.53618,0.95573 5.17804,1.69907 7.8199,2.54861c0.52837,0.10619 0.95107,0.63715 0.95107,1.2743c0,0 0,0.10619 0,0.10619c-0.10567,0.63715 -0.52837,1.16811 -1.16242,1.16811c-2.43051,0.10619 -5.38939,0.63715 -8.03124,1.80526c-4.43832,2.23003 -7.3972,6.69009 -8.66529,8.92012c1.26809,0.31858 3.2759,0.63715 5.60074,0.63715c2.43051,0 5.17804,-0.42477 7.50287,-1.69907c4.75534,-2.6548 7.08018,-7.75201 7.8199,-9.98204c0.21135,-0.53096 0.63405,-0.84954 1.16242,-0.84954c0.10567,0 0.21135,0 0.31702,0c7.3972,1.91145 14.90007,3.29195 22.61429,4.03529c0.63405,0.10619 1.05674,0.63715 1.05674,1.2743l0,0c0,0.63715 -0.4227,1.16811 -1.05674,1.2743c-2.53618,0.42477 -5.91776,1.2743 -8.77096,3.29195c-3.6986,2.76099 -5.70641,7.22105 -6.5518,9.66346c0.10567,0 0.21135,0 0.31702,0l0,0c2.74753,0 7.8199,-0.53096 11.30715,-3.18576c4.22697,-3.39814 5.49506,-9.13251 5.81208,-10.93777c0.10567,-0.63715 0.63405,-1.06192 1.16242,-1.06192c0,0 0,0 0,0c0,0 0.10567,0 0.10567,0c2.53618,0.21238 5.07236,0.31858 7.50287,0.31858l3.59293,0l0.10567,0l3.6986,0c2.64186,0 5.17804,-0.10619 7.8199,-0.31858l0.10567,0c0.52837,0 1.05674,0.42477 1.16242,1.06192c0,0.10619 0,0.21238 0,0.31858c0,0.53096 -0.31702,0.95573 -0.73972,1.16811c-2.11349,0.95573 -4.54399,2.33622 -6.44613,4.46006c-3.48725,3.82291 -4.86102,9.13251 -5.28371,11.68111c2.64186,-0.42477 8.45394,-2.01765 11.94119,-5.84056c3.48725,-3.82291 4.1213,-9.45108 4.22697,-11.99969c0,-0.63715 0.52837,-1.16811 1.05674,-1.2743c7.71422,-0.84954 15.32277,-2.44241 22.71997,-4.56625c0.10567,0 0.21135,0 0.31702,0c0.52837,0 0.95107,0.31858 1.16242,0.84954c0,0.10619 0.10567,0.31858 0.10567,0.42477c0,0.53096 -0.21135,0.95573 -0.63405,1.16811c-2.32483,1.16811 -5.38939,3.29195 -7.3972,6.47771c-2.64186,4.03529 -3.06455,8.92012 -3.17023,11.36254c2.32483,-0.84954 7.50287,-3.18576 10.03906,-7.32724c1.90214,-2.97337 2.32483,-6.26532 2.32483,-8.81393c0,-1.69907 -0.21135,-2.97337 -0.31702,-3.61053c0,-0.10619 0,-0.10619 0,-0.21238c0,-0.53096 0.31702,-1.06192 0.84539,-1.2743c2.43051,-0.74334 4.75534,-1.48669 7.08018,-2.33622l3.59293,-1.2743l0.10567,0l0.31702,0l3.06455,-1.2743c2.43051,-0.95573 4.75534,-2.12384 7.08018,-3.18576c0.10567,-0.10619 0.31702,-0.10619 0.52837,-0.10619c0.4227,0 0.73972,0.21238 1.05674,0.63715c0.10567,0.21238 0.21135,0.42477 0.21135,0.74334c0,0.31858 -0.10567,0.74334 -0.4227,0.95573c-1.69079,1.69907 -3.48725,3.82291 -4.54399,6.5839c-1.26809,2.86718 -1.58511,5.84056 -1.58511,8.49535c0,0 0,0.10619 0,0.10619c0,1.69907 0.21135,3.18576 0.31702,4.24768c0,0 0.10567,-0.10619 0.10567,-0.10619c0.84539,-0.42477 1.90214,-1.16811 3.06455,-2.01765c2.32483,-1.80526 4.86102,-4.46006 6.23478,-7.75201c0.84539,-2.12384 1.16242,-4.14148 1.16242,-6.15913c0,-2.86718 -0.63405,-5.41579 -1.05674,-6.69009c0,-0.10619 -0.10567,-0.31858 -0.10567,-0.42477c0,-0.53096 0.21135,-0.95573 0.63405,-1.16811c6.86883,-3.71672 13.52631,-7.96439 19.86676,-12.63684c0.21135,-0.21238 0.4227,-0.21238 0.73972,-0.21238c0.31702,0 0.63405,0.10619 0.95107,0.42477c0.21135,0.21238 0.31702,0.53096 0.31702,0.84954c0,0.31858 -0.10567,0.63715 -0.31702,0.84954c-1.69079,2.01765 -3.90995,5.09721 -4.75534,9.02631c-0.31702,1.38049 -0.52837,2.76099 -0.52837,4.24768l0,0c0,3.07957 0.73972,5.84056 1.26809,7.43343c0.63405,-0.53096 1.58511,-1.38049 2.43051,-2.33622c1.90214,-2.01765 3.80427,-4.99102 4.54399,-8.28297c0.21135,-1.06192 0.31702,-2.12384 0.31702,-3.07957l0,0c0,-4.35387 -1.90214,-8.17678 -2.53618,-9.2387c-0.10567,-0.21238 -0.21135,-0.42477 -0.21135,-0.63715c0,-0.42477 0.21135,-0.74334 0.52837,-1.06192c2.00781,-1.59288 4.01562,-3.18576 5.91776,-4.88483l2.95888,-2.54861l0.10567,0l0.21135,-0.10619l2.43051,-2.44241c1.90214,-1.80526 3.6986,-3.82291 5.49506,-5.73436c0.21135,-0.21238 0.52837,-0.42477 0.84539,-0.42477c0.21135,0 0.52837,0.10619 0.73972,0.21238c0.31702,0.21238 0.52837,0.63715 0.52837,1.06192c0,0.21238 0,0.42477 -0.10567,0.53096c-1.05674,2.23003 -1.90214,4.88483 -2.00781,7.96439c0,0.42477 0,0.74334 0,1.16811c0,0 0,0.10619 0,0.10619c0,4.77864 2.00781,9.13251 3.17023,11.15015c0,0 0,0 0,0c0.63405,-0.74334 1.37377,-1.80526 2.21916,-3.07957c1.58511,-2.54861 3.17023,-6.15913 3.2759,-9.76966c0,-0.10619 0,-0.31858 0,-0.42477c0,-0.10619 0,-0.10619 0,-0.21238l0,0c0,-5.2034 -2.95888,-9.55727 -4.43832,-11.25634c-0.21135,-0.21238 -0.31702,-0.53096 -0.31702,-0.84954c0,-0.31858 0.10567,-0.63715 0.31702,-0.84954c5.17804,-6.15913 9.82771,-12.84922 13.949,-19.85789c0.21135,-0.42477 0.63405,-0.63715 1.05674,-0.63715c0.21135,0 0.4227,0 0.52837,0.10619c0.4227,0.21238 0.63405,0.63715 0.63405,1.16811c0,0.21238 0,0.31858 -0.10567,0.42477c-0.73972,2.01765 -1.47944,4.77864 -1.47944,7.75201c0,0.84954 0.10567,1.69907 0.21135,2.54861c0.63405,4.88483 3.38158,8.81393 4.86102,10.61919c0.31702,-0.63715 0.73972,-1.38049 1.16242,-2.33622c0.95107,-2.23003 1.79646,-5.2034 1.79646,-8.28297c0,-0.74334 -0.10567,-1.48669 -0.21135,-2.23003c-0.73972,-5.73436 -5.28371,-9.55727 -6.5518,-10.513c-0.31702,-0.21238 -0.52837,-0.63715 -0.52837,-1.06192c0,-0.21238 0,-0.42477 0.21135,-0.63715c1.26809,-2.33622 2.53618,-4.56625 3.59293,-7.00867l1.79646,-3.61053l0,0l1.47944,-3.39814c1.05674,-2.54861 2.00781,-5.09721 2.95888,-7.75201c0.21135,-0.53096 0.63405,-0.84954 1.16242,-0.84954c0.10567,0 0.21135,0 0.21135,0c0.52837,0.10619 0.95107,0.63715 0.95107,1.2743l0,0l0,0.10619c0,0.31858 0,0.63715 0,0.95573c0,2.23003 0.31702,4.77864 1.05674,7.22105c1.79646,5.09721 5.70641,8.70774 7.60855,10.19442c0.10567,-0.42477 0.21135,-0.84954 0.31702,-1.38049c0.4227,-1.69907 0.84539,-4.14148 0.84539,-6.69009c0,-2.12384 -0.31702,-4.35387 -0.95107,-6.26532c-1.79646,-5.09721 -6.44613,-7.96439 -8.66529,-9.02631c-0.4227,-0.21238 -0.73972,-0.63715 -0.73972,-1.16811c0,-0.10619 0,-0.31858 0.10567,-0.42477c2.32483,-7.75201 3.90995,-15.8226 4.86102,-23.99937c0.10567,-0.63715 0.63405,-1.16811 1.26809,-1.16811c0.63405,0 1.16242,0.53096 1.16242,1.16811c0.21135,2.6548 0.95107,6.47771 2.85321,9.66346c2.53618,4.14148 6.65748,6.5839 8.77096,7.53963c0,-0.42477 0,-1.06192 0,-1.69907l0,0c0,-3.07957 -0.52837,-7.8582 -2.64186,-11.25634c-2.85321,-4.67244 -8.45394,-6.15913 -10.14473,-6.47771l0.10567,-0.63715l-0.10567,0.63715c-0.52837,-0.10619 -0.95107,-0.63715 -0.95107,-1.2743c0,0 0,-0.10619 0,-0.10619c0.21135,-2.6548 0.4227,-5.3096 0.4227,-7.96439l0.10567,-3.82291l0,-0.10619l-0.10567,-3.9291c-0.10567,-2.86718 -0.21135,-5.73436 -0.52837,-8.49535c0,0 0,-0.10619 0,-0.10619c0,-0.63715 0.4227,-1.16811 0.95107,-1.2743c0.10567,0 0.21135,0 0.31702,0c0.63405,-1.06192 1.05674,-0.74334 1.26809,-0.31858zm-6.76315,16.99071c0,0.31858 0,0.53096 0,0.74334c0,0.63715 -0.52837,1.16811 -1.16242,1.2743c-1.47944,0.10619 -5.49506,0.74334 -8.13692,3.07957c-2.11349,1.91145 -3.2759,4.35387 -3.80427,6.05294c1.90214,0 5.07236,-0.42477 7.3972,-2.23003c1.58511,-1.2743 2.53618,-3.18576 3.17023,-4.88483c0.21135,-0.53096 0.63405,-0.84954 1.16242,-0.84954c0.10567,0 0.21135,0 0.21135,0c0.52837,0.10619 0.95107,0.63715 0.95107,1.2743l0,0l0,0.10619c-0.4227,8.49535 -1.79646,16.88452 -3.90995,25.06129c-0.10567,0.63715 -0.63405,0.95573 -1.16242,0.95573c-0.10567,0 -0.10567,0 -0.21135,0c-0.73972,-0.10619 -2.21916,-0.31858 -3.90995,-0.31858l0,0l-0.10567,0l0,0c-2.32483,0 -5.17804,0.31858 -7.50287,1.48669c-3.48725,1.69907 -6.02343,4.77864 -7.08018,6.47771c0.21135,0.10619 0.4227,0.10619 0.73972,0.21238c1.26809,0.31858 3.06455,0.63715 4.96669,0.63715c1.58511,0 3.38158,-0.21238 5.07236,-0.95573c2.95888,-1.16811 4.96669,-3.61053 6.12911,-5.73436c0.21135,-0.42477 0.63405,-0.63715 1.05674,-0.63715c0.21135,0 0.31702,0 0.52837,0.10619c0.4227,0.21238 0.73972,0.63715 0.73972,1.16811c0,0.10619 0,0.21238 0,0.42477c-1.37377,4.77864 -3.06455,9.45108 -4.96669,14.12353l-1.47944,3.39814c-0.10567,0.10619 -0.10567,0.21238 -0.10567,0.21238l-1.58511,3.29195c-0.10567,0.21238 -0.21135,0.53096 -0.31702,0.63715c-0.21135,0.42477 -0.63405,0.74334 -1.05674,0.74334c-0.10567,0 -0.31702,0 -0.4227,-0.10619c-1.05674,-0.42477 -3.48725,-1.16811 -6.02343,-1.16811c-0.84539,0 -1.69079,0.10619 -2.53618,0.31858c-2.53618,0.74334 -4.75534,2.54861 -6.02343,3.71672c0.21135,0.10619 0.52837,0.21238 0.84539,0.31858c1.37377,0.53096 3.17023,1.06192 5.07236,1.06192c0.63405,0 1.16242,-0.10619 1.79646,-0.21238c1.90214,-0.42477 3.48725,-1.48669 4.64967,-2.76099c0.21135,-0.21238 0.52837,-0.31858 0.84539,-0.31858c0.21135,0 0.52837,0.10619 0.73972,0.31858c0.31702,0.21238 0.52837,0.63715 0.52837,1.06192c0,0.21238 0,0.42477 -0.10567,0.63715c-3.80427,7.32724 -8.34827,14.22972 -13.31496,20.70742c-0.21135,0.31858 -0.63405,0.42477 -0.95107,0.42477c-0.21135,0 -0.4227,-0.10619 -0.63405,-0.21238c-1.47944,-1.06192 -6.12911,-3.9291 -10.6731,-3.9291l0,0l-0.10567,0c-0.10567,0 -0.10567,0 -0.31702,0c-0.10567,0 -0.21135,0 -0.4227,0c-3.90995,0 -7.08018,1.80526 -8.66529,2.97337c0.52837,0.53096 1.26809,1.06192 2.11349,1.69907c2.00781,1.38049 4.64967,2.6548 7.60855,2.76099c0.21135,0 0.31702,0 0.52837,0c2.85321,0 5.38939,-1.2743 7.18585,-2.54861c0.21135,-0.10619 0.4227,-0.21238 0.63405,-0.21238c0.31702,0 0.63405,0.21238 0.95107,0.42477c0.21135,0.21238 0.31702,0.53096 0.31702,0.84954c0,0.31858 -0.10567,0.63715 -0.31702,0.84954c-3.06455,3.71672 -6.34046,7.32724 -9.82771,10.61919l-2.53618,2.44241c-0.10567,0.10619 -0.31702,0.21238 -0.52837,0.31858l-2.43051,2.12384c-0.21135,0.21238 -0.4227,0.31858 -0.52837,0.42477c-0.21135,0.21238 -0.52837,0.31858 -0.73972,0.31858c-0.31702,0 -0.63405,-0.10619 -0.84539,-0.31858c-1.05674,-1.16811 -4.1213,-3.82291 -7.50287,-4.35387c-0.63405,-0.10619 -1.16242,-0.10619 -1.79646,-0.10619c-2.11349,0 -4.01562,0.63715 -5.17804,1.06192c0.31702,0.31858 0.73972,0.74334 1.16242,1.16811c1.37377,1.2743 3.2759,2.6548 5.49506,3.07957c0.63405,0.10619 1.16242,0.21238 1.79646,0.21238c1.26809,0 2.43051,-0.31858 3.38158,-0.63715c0.10567,-0.10619 0.31702,-0.10619 0.4227,-0.10619c0.4227,0 0.84539,0.21238 1.05674,0.63715c0.10567,0.21238 0.10567,0.42477 0.10567,0.63715c0,0.42477 -0.21135,0.74334 -0.52837,1.06192c-6.23478,5.09721 -12.89226,9.66346 -19.76109,13.69876c-0.21135,0.10619 -0.4227,0.10619 -0.63405,0.10619c-0.4227,0 -0.73972,-0.21238 -1.05674,-0.53096c-1.05674,-1.59288 -4.43832,-6.15913 -8.87664,-7.96439c-2.00781,-0.95573 -4.01562,-1.2743 -5.81208,-1.2743l-0.10567,0c-1.47944,0 -2.85321,0.21238 -3.6986,0.42477c0.31702,0.63715 0.84539,1.48669 1.47944,2.33622c1.37377,2.01765 3.48725,4.35387 6.23478,5.52198c1.69079,0.74334 3.38158,1.06192 4.96669,1.06192c1.05674,0 2.11349,-0.10619 2.95888,-0.31858c0.10567,0 0.10567,0 0.21135,0c0.52837,0 0.95107,0.31858 1.16242,0.84954c0,0.10619 0.10567,0.31858 0.10567,0.42477c0,0.42477 -0.21135,0.95573 -0.63405,1.16811c-4.1213,2.23003 -8.34827,4.24768 -12.68091,6.05294l-3.2759,1.38049c-0.10567,0.10619 -0.31702,0.10619 -0.4227,0.10619c-0.10567,0 -0.10567,0 -0.21135,0l-3.06455,1.06192l0,0c-0.21135,0.10619 -0.4227,0.10619 -0.63405,0.21238c-0.10567,0 -0.21135,0.10619 -0.31702,0.10619c-0.4227,0 -0.95107,-0.31858 -1.16242,-0.74334c-0.63405,-1.48669 -2.64186,-5.09721 -5.49506,-6.90247c-2.32483,-1.38049 -5.17804,-1.69907 -6.86883,-1.69907l0,0l-0.10567,0c0.21135,0.42477 0.4227,0.95573 0.63405,1.48669c0.84539,1.69907 2.21916,3.71672 4.1213,4.99102c1.58511,1.16811 3.38158,1.48669 4.96669,1.48669c0.63405,0 1.16242,0.53096 1.16242,1.16811c0,0.10619 0,0.10619 0,0.21238c0,0.53096 -0.31702,1.06192 -0.84539,1.2743c-7.50287,2.44241 -15.21709,4.24768 -23.03699,5.41579c-0.10567,0 -0.10567,0 -0.21135,0c-0.52837,0 -1.05674,-0.42477 -1.16242,-0.95573c-0.4227,-1.80526 -2.11349,-7.53963 -5.70641,-10.83158c-2.95888,-2.86718 -6.86883,-3.9291 -8.87664,-4.24768c0.10567,0.74334 0.31702,1.69907 0.52837,2.76099c0.63405,2.44241 1.90214,5.41579 4.01562,7.53963c2.21916,2.33622 5.17804,3.29195 7.50287,3.61053c0.52837,0.10619 0.95107,0.53096 1.05674,1.16811l0,0l0,0.10619l0,0c0,0.63715 -0.4227,1.16811 -1.05674,1.2743c-4.64967,0.53096 -9.40501,0.95573 -14.16035,0.95573l-3.6986,0l-3.6986,0c-0.21135,0 -0.4227,0 -0.63405,0c-0.63405,0 -1.16242,-0.53096 -1.16242,-1.16811c-0.10567,-1.59288 -0.84539,-5.84056 -3.06455,-8.60155c-1.90214,-2.33622 -4.33264,-3.39814 -6.02343,-3.9291c0.10567,2.01765 0.63405,5.41579 2.43051,7.75201c1.26809,1.69907 3.17023,2.6548 4.86102,3.29195c0.52837,0.21238 0.84539,0.74334 0.84539,1.2743c0,0.10619 0,0.10619 0,0.21238c-0.10567,0.53096 -0.52837,0.95573 -1.05674,1.06192l0,0l-0.21135,0c-8.03124,-0.31858 -16.06249,-1.48669 -23.98806,-3.29195c-0.52837,-0.10619 -0.95107,-0.63715 -0.95107,-1.2743c0,0 0,0 0,-0.21238c0,-0.53096 0.10567,-1.2743 0.10567,-2.23003l0,-0.10619c0,-2.6548 -0.4227,-6.69009 -2.00781,-9.87585c-2.00781,-3.61053 -5.17804,-5.94675 -6.9745,-7.00867c-0.21135,1.06192 -0.31702,2.44241 -0.4227,4.24768c0,2.23003 0.31702,4.77864 1.37377,7.11486c1.37377,2.76099 3.80427,4.67244 5.81208,5.84056c0.4227,0.21238 0.63405,0.63715 0.63405,1.16811c0,0.10619 0,0.31858 -0.10567,0.42477c-0.21135,0.53096 -0.63405,0.84954 -1.16242,0.84954c-0.10567,0 -0.21135,0 -0.31702,0c-4.54399,-1.16811 -9.08799,-2.54861 -13.52631,-4.03529l-2.95888,-1.06192c-0.10567,0 -0.10567,0 -0.21135,0c-0.21135,0 -0.31702,0 -0.4227,-0.10619l-3.06455,-1.2743l-0.10567,0l-0.10567,0c-0.21135,-0.10619 -0.4227,-0.21238 -0.63405,-0.31858c-0.52837,-0.21238 -0.73972,-0.63715 -0.73972,-1.16811c0,-0.10619 0,-0.21238 0,-0.31858c0.21135,-0.95573 0.63405,-2.76099 0.63405,-4.88483c0,-1.38049 -0.21135,-2.97337 -0.63405,-4.35387c-0.95107,-2.97337 -2.95888,-4.88483 -4.33264,-5.84056c0,0.10619 -0.10567,0.21238 -0.10567,0.42477c-0.31702,1.16811 -0.63405,2.6548 -0.63405,4.35387c0,1.16811 0.10567,2.23003 0.52837,3.39814c0.73972,2.12384 2.11349,3.82291 3.48725,4.99102c0.31702,0.21238 0.4227,0.63715 0.4227,0.95573c0,0.21238 -0.10567,0.42477 -0.21135,0.63715c-0.21135,0.42477 -0.63405,0.63715 -1.05674,0.63715c-0.21135,0 -0.31702,0 -0.52837,-0.10619c-7.3972,-3.39814 -14.58305,-7.32724 -21.45188,-11.99969c-0.31702,-0.21238 -0.52837,-0.63715 -0.52837,-1.06192c0,-0.21238 0,-0.42477 0.10567,-0.53096c0.73972,-1.59288 2.32483,-5.84056 2.32483,-10.08823l0,0c0,0 0,0 0,0c0,0 0,0 0,0c0,0 0,0 0,-0.10619c0,-0.63715 0,-1.2743 -0.10567,-1.80526c-0.63405,-4.14148 -2.74753,-7.43343 -4.1213,-9.13251c-0.31702,0.53096 -0.63405,1.2743 -1.05674,2.01765c-0.95107,2.12384 -1.90214,4.88483 -1.90214,7.8582c0,0.31858 0,0.74334 0,1.06192c0.31702,3.07957 1.90214,5.73436 3.48725,7.64582c0.21135,0.21238 0.31702,0.53096 0.31702,0.84954c0,0.31858 -0.10567,0.63715 -0.31702,0.84954c-0.21135,0.31858 -0.52837,0.42477 -0.95107,0.42477c-0.21135,0 -0.4227,-0.10619 -0.63405,-0.21238c-3.80427,-2.76099 -7.60855,-5.73436 -11.20147,-8.81393l-2.43051,-2.12384c-0.21135,0 -0.4227,-0.10619 -0.52837,-0.31858l-2.53618,-2.54861c-0.21135,-0.21238 -0.31702,-0.31858 -0.52837,-0.53096c-0.21135,-0.21238 -0.4227,-0.63715 -0.4227,-0.95573c0,-0.21238 0.10567,-0.53096 0.21135,-0.74334c0.95107,-1.2743 3.06455,-4.99102 3.17023,-8.70774c0,-0.10619 0,-0.31858 0,-0.42477l0,0c0,-2.76099 -1.16242,-5.09721 -2.00781,-6.5839c-0.31702,0.42477 -0.63405,0.84954 -0.95107,1.38049c-1.05674,1.59288 -2.00781,3.82291 -2.11349,6.05294c0,0.10619 0,0.21238 0,0.31858c0,2.12384 0.73972,4.14148 1.47944,5.62817c0.10567,0.21238 0.10567,0.42477 0.10567,0.63715c0,0.42477 -0.21135,0.74334 -0.52837,1.06192c-0.21135,0.21238 -0.4227,0.21238 -0.73972,0.21238c-0.31702,0 -0.63405,-0.10619 -0.84539,-0.42477c-5.81208,-5.94675 -10.99012,-12.53065 -15.63979,-19.53931c-0.10567,-0.21238 -0.21135,-0.53096 -0.21135,-0.74334c0,-0.31858 0.10567,-0.74334 0.4227,-0.95573c1.37377,-1.2743 5.28371,-5.41579 6.44613,-10.19442c0.31702,-1.38049 0.4227,-2.76099 0.4227,-4.14148l0,0c0,-2.44241 -0.4227,-4.56625 -0.73972,-5.84056c-0.52837,0.42477 -1.26809,0.95573 -2.00781,1.69907c-1.79646,1.69907 -3.80427,4.14148 -4.64967,7.11486c-0.31702,1.16811 -0.4227,2.33622 -0.4227,3.39814c0,1.80526 0.31702,3.61053 0.84539,4.99102c0,0.10619 0.10567,0.31858 0.10567,0.42477c0,0.53096 -0.21135,0.95573 -0.73972,1.16811c-0.21135,0.10619 -0.31702,0.10619 -0.52837,0.10619c-0.4227,0 -0.73972,-0.21238 -1.05674,-0.63715c-2.53618,-4.14148 -4.96669,-8.38916 -7.08018,-12.74303l-1.58511,-3.18576c-0.10567,-0.10619 -0.10567,-0.21238 -0.21135,-0.31858l-1.47944,-3.50433l0,0.10619c-0.10567,-0.21238 -0.21135,-0.53096 -0.21135,-0.63715c-0.10567,-0.21238 -0.10567,-0.31858 -0.10567,-0.53096c0,-0.42477 0.21135,-0.84954 0.63405,-1.16811c1.26809,-0.84954 4.64967,-3.18576 6.12911,-6.47771c0.84539,-1.91145 1.05674,-3.82291 1.05674,-5.52198c0,-0.63715 0,-1.2743 -0.10567,-1.69907c-0.4227,0.21238 -0.84539,0.53096 -1.37377,0.84954c-1.58511,0.95573 -3.38158,2.54861 -4.33264,4.56625c-0.73972,1.48669 -0.95107,3.18576 -0.95107,4.67244c0,0.42477 0,0.95573 0.10567,1.38049c0,0 0,0 0,0.10619c0,0.63715 -0.4227,1.16811 -0.95107,1.2743c-0.10567,0 -0.21135,0 -0.31702,0c-0.52837,0 -0.95107,-0.31858 -1.16242,-0.84954c-3.06455,-7.8582 -5.28371,-16.14117 -6.76315,-24.53033c0,-0.10619 0,-0.10619 0,-0.21238c0,-0.53096 0.31702,-1.06192 0.84539,-1.2743c1.69079,-0.53096 6.9745,-2.54861 10.03906,-6.37152c2.43051,-3.07957 3.48725,-7.00867 3.80427,-9.13251c-0.73972,0.10619 -1.58511,0.31858 -2.53618,0.63715c-2.32483,0.74334 -5.07236,2.01765 -7.08018,4.35387c-2.21916,2.33622 -2.95888,5.41579 -3.17023,7.8582c-0.10567,0.63715 -0.52837,1.16811 -1.16242,1.16811l0,0c-0.63405,0 -1.16242,-0.42477 -1.16242,-1.06192c-0.63405,-4.88483 -1.05674,-9.87585 -1.16242,-14.86687l-0.10567,-3.82291l0.10567,-3.82291c0,-0.31858 0,-0.53096 0,-0.63715c0,-0.63715 0.52837,-1.16811 1.16242,-1.2743c1.47944,-0.10619 5.49506,-0.74334 8.13692,-3.07957c2.11349,-1.91145 3.2759,-4.35387 3.80427,-6.05294c-1.90214,0 -5.07236,0.42477 -7.3972,2.23003c-1.58511,1.2743 -2.53618,3.18576 -3.17023,4.88483c-0.21135,0.53096 -0.63405,0.84954 -1.16242,0.84954c-0.10567,0 -0.10567,0 -0.21135,0c-0.52837,-0.10619 -0.95107,-0.63715 -0.95107,-1.2743c0,0 0,0 0,-0.10619c0.4227,-8.49535 1.79646,-16.88452 3.80427,-25.06129c0.10567,-0.53096 0.63405,-0.95573 1.16242,-0.95573c0,0 0.10567,0 0.21135,0c0.73972,0.10619 2.21916,0.31858 4.01562,0.31858c2.32483,0 5.17804,-0.31858 7.60855,-1.48669c3.48725,-1.69907 6.02343,-4.77864 7.08018,-6.47771c-0.21135,-0.10619 -0.4227,-0.10619 -0.73972,-0.21238c-1.26809,-0.31858 -2.95888,-0.63715 -4.86102,-0.63715l0,0l-0.10567,0l0,0c-1.58511,0 -3.38158,0.21238 -4.96669,0.95573c-2.95888,1.16811 -4.96669,3.61053 -6.12911,5.73436c-0.21135,0.42477 -0.63405,0.63715 -1.05674,0.63715c-0.21135,0 -0.31702,0 -0.52837,-0.10619c-0.4227,-0.21238 -0.73972,-0.63715 -0.73972,-1.16811c0,-0.10619 0,-0.21238 0.10567,-0.42477c1.37377,-4.77864 3.06455,-9.55727 4.96669,-14.12353l1.47944,-3.39814c0,-0.10619 0.10567,-0.21238 0.21135,-0.31858l1.58511,-3.18576c0.10567,-0.21238 0.21135,-0.42477 0.31702,-0.63715c0.21135,-0.42477 0.63405,-0.74334 1.05674,-0.74334c0.10567,0 0.31702,0 0.4227,0.10619c1.05674,0.42477 3.48725,1.16811 6.02343,1.16811c0.84539,0 1.69079,-0.10619 2.53618,-0.31858c2.53618,-0.74334 4.75534,-2.54861 6.02343,-3.71672c-0.21135,-0.10619 -0.52837,-0.21238 -0.84539,-0.31858c-1.37377,-0.53096 -3.17023,-1.06192 -5.07236,-1.06192c-0.63405,0 -1.16242,0.10619 -1.79646,0.21238c-1.90214,0.42477 -3.48725,1.48669 -4.64967,2.76099c-0.21135,0.21238 -0.52837,0.31858 -0.84539,0.31858c-0.31702,0 -0.52837,-0.10619 -0.73972,-0.21238c-0.31702,-0.21238 -0.52837,-0.63715 -0.52837,-1.06192c0,-0.21238 0.10567,-0.42477 0.21135,-0.63715c3.80427,-7.32724 8.34827,-14.22972 13.31496,-20.70742c0.21135,-0.31858 0.63405,-0.42477 0.95107,-0.42477c0.21135,0 0.4227,0.10619 0.63405,0.21238c1.47944,1.06192 6.12911,3.9291 10.6731,3.9291c0,0 0,0 0.10567,0c0,0 0.10567,0 0.10567,0c0,0 0.10567,0 0.10567,0c0.10567,0 0.21135,0 0.31702,0c0,0 0,0 0.10567,0c3.90995,0 7.08018,-1.80526 8.66529,-2.97337c-0.52837,-0.42477 -1.26809,-1.06192 -2.11349,-1.69907c-2.00781,-1.38049 -4.64967,-2.6548 -7.60855,-2.76099c-0.10567,0 -0.31702,0 -0.52837,0l0,0c-2.85321,0 -5.38939,1.2743 -7.18585,2.54861c-0.21135,0.10619 -0.4227,0.21238 -0.63405,0.21238c-0.31702,0 -0.63405,-0.10619 -0.95107,-0.42477c-0.21135,-0.21238 -0.31702,-0.53096 -0.31702,-0.84954c0,-0.31858 0.10567,-0.63715 0.31702,-0.84954c3.06455,-3.71672 6.34046,-7.32724 9.82771,-10.72538l2.53618,-2.44241c0.21135,-0.21238 0.31702,-0.31858 0.52837,-0.31858l2.43051,-2.12384c0.21135,-0.21238 0.4227,-0.31858 0.52837,-0.42477c0.21135,-0.21238 0.52837,-0.31858 0.73972,-0.31858c0.31702,0 0.63405,0.10619 0.84539,0.31858c1.05674,1.16811 4.1213,3.82291 7.50287,4.35387c0.52837,0.10619 1.16242,0.10619 1.69079,0.10619c0,0 0.10567,0 0.10567,0l0.10567,0c2.11349,0 4.01562,-0.63715 5.17804,-1.06192c-0.31702,-0.31858 -0.73972,-0.74334 -1.16242,-1.16811c-1.37377,-1.2743 -3.2759,-2.6548 -5.49506,-3.07957c-0.63405,-0.10619 -1.26809,-0.21238 -1.79646,-0.21238c-1.26809,0 -2.43051,0.31858 -3.38158,0.74334c-0.10567,0 -0.31702,0.10619 -0.4227,0.10619c-0.4227,0 -0.84539,-0.21238 -1.05674,-0.63715c-0.10567,-0.21238 -0.10567,-0.42477 -0.10567,-0.63715c0,-0.42477 0.21135,-0.74334 0.52837,-1.06192c6.23478,-5.09721 12.89226,-9.66346 19.76109,-13.69876c0.21135,-0.10619 0.4227,-0.21238 0.63405,-0.21238c0.4227,0 0.73972,0.21238 1.05674,0.53096c0.95107,1.59288 4.43832,6.15913 8.87664,7.96439c2.00781,0.95573 4.01562,1.16811 5.81208,1.16811l0,0c1.58511,0 2.85321,-0.21238 3.80427,-0.42477c-0.31702,-0.63715 -0.84539,-1.48669 -1.47944,-2.33622c-1.37377,-2.01765 -3.48725,-4.35387 -6.23478,-5.52198c-1.69079,-0.74334 -3.38158,-1.06192 -4.96669,-1.06192c-1.05674,0 -2.11349,0.10619 -3.06455,0.31858c-0.10567,0 -0.10567,0 -0.21135,0c-0.52837,0 -0.95107,-0.31858 -1.16242,-0.84954c0,-0.10619 -0.10567,-0.31858 -0.10567,-0.42477c0,-0.53096 0.21135,-0.95573 0.63405,-1.16811c4.1213,-2.23003 8.34827,-4.24768 12.68091,-6.05294l3.17023,-1.38049c0.10567,-0.10619 0.31702,-0.10619 0.4227,-0.10619c0.10567,0 0.10567,0 0.21135,0l2.95888,-1.06192c0.21135,-0.10619 0.4227,-0.10619 0.63405,-0.21238c0.10567,0 0.21135,-0.10619 0.4227,-0.10619c0.4227,0 0.84539,0.31858 1.16242,0.74334c0.63405,1.48669 2.64186,5.09721 5.49506,6.90247c2.43051,1.38049 5.28371,1.69907 6.9745,1.69907c0,0 0,0 0,0c-0.21135,-0.42477 -0.4227,-0.95573 -0.63405,-1.48669c-0.84539,-1.69907 -2.21916,-3.71672 -4.1213,-4.99102c-1.58511,-1.16811 -3.38158,-1.48669 -4.96669,-1.48669c-0.63405,0 -1.16242,-0.53096 -1.16242,-1.06192c0,0 0,-0.10619 0,-0.21238c0,-0.53096 0.31702,-1.06192 0.84539,-1.2743c7.50287,-2.44241 15.21709,-4.24768 23.03699,-5.41579c0,0 0.10567,0 0.21135,0c0.52837,0 1.05674,0.42477 1.16242,0.95573c0.4227,1.80526 2.11349,7.53963 5.70641,10.72538c2.95888,2.86718 6.86883,3.9291 8.87664,4.24768c-0.10567,-0.74334 -0.31702,-1.69907 -0.52837,-2.76099c-0.63405,-2.44241 -1.90214,-5.41579 -4.01562,-7.53963c-2.21916,-2.44241 -5.17804,-3.29195 -7.50287,-3.61053c-0.63405,-0.10619 -1.05674,-0.63715 -1.05674,-1.2743c0,-0.63715 0.4227,-1.16811 1.05674,-1.2743c4.64967,-0.53096 9.40501,-0.95573 14.16035,-0.95573l3.6986,0l3.6986,0c0.21135,0 0.52837,0 0.63405,0c0.63405,0 1.16242,0.53096 1.16242,1.16811c0.10567,1.59288 0.73972,5.84056 3.06455,8.60155c1.90214,2.33622 4.33264,3.39814 6.02343,3.9291c-0.10567,-2.01765 -0.63405,-5.41579 -2.43051,-7.75201c-1.37377,-1.69907 -3.17023,-2.76099 -4.86102,-3.29195c-0.52837,-0.21238 -0.84539,-0.63715 -0.84539,-1.2743c0,0 0,-0.10619 0,-0.21238c0.10567,-0.63715 0.63405,-1.06192 1.16242,-1.06192c0,0 0,0 0,0c0,0 0.10567,0 0.10567,0c8.03124,0.31858 16.06249,1.48669 23.98806,3.29195c0.52837,0.10619 0.95107,0.63715 0.95107,1.2743c0,0 0,0.10619 0,0.10619c0,0.53096 -0.10567,1.38049 -0.10567,2.33622l0,0c0,2.6548 0.4227,6.69009 2.00781,9.76966c2.00781,3.61053 5.17804,5.94675 6.9745,7.00867c0.21135,-1.06192 0.31702,-2.44241 0.31702,-4.24768l0,0c0,-2.23003 -0.31702,-4.77864 -1.37377,-7.11486c-1.37377,-2.76099 -3.80427,-4.67244 -5.81208,-5.84056c-0.4227,-0.21238 -0.63405,-0.63715 -0.63405,-1.16811c0,-0.10619 0,-0.31858 0.10567,-0.42477c0.21135,-0.53096 0.63405,-0.84954 1.16242,-0.84954c0.10567,0 0.21135,0 0.31702,0c4.54399,1.16811 9.08799,2.54861 13.52631,4.03529l2.95888,1.06192c0.10567,0 0.10567,0 0.21135,0c0.10567,0 0.31702,0 0.4227,0.10619l3.2759,1.38049c0.21135,0.10619 0.4227,0.21238 0.63405,0.31858c0.52837,0.21238 0.73972,0.63715 0.73972,1.16811c0,0.10619 0,0.21238 0,0.31858c-0.21135,0.95573 -0.63405,2.76099 -0.63405,4.88483c0,1.48669 0.21135,2.97337 0.63405,4.46006c0.95107,2.97337 2.95888,4.77864 4.33264,5.84056c0,-0.10619 0.10567,-0.21238 0.10567,-0.42477c0.31702,-1.16811 0.63405,-2.6548 0.63405,-4.35387c0,-1.16811 -0.10567,-2.23003 -0.52837,-3.39814c-0.63405,-2.12384 -2.11349,-3.82291 -3.48725,-4.99102c-0.31702,-0.21238 -0.4227,-0.63715 -0.4227,-0.95573c0,-0.21238 0.10567,-0.53096 0.21135,-0.63715c0.21135,-0.42477 0.63405,-0.63715 1.05674,-0.63715c0.10567,0 0.31702,0 0.52837,0.10619c7.3972,3.39814 14.58305,7.32724 21.45188,11.99969c0.4227,0.21238 0.52837,0.63715 0.52837,1.06192c0,0.21238 0,0.31858 -0.10567,0.53096c-0.73972,1.59288 -2.32483,5.73436 -2.32483,9.98204l0,0l0,0.10619c0,0.63715 0,1.38049 0.10567,2.01765c0.63405,4.14148 2.74753,7.43343 4.1213,9.13251c0.31702,-0.53096 0.63405,-1.2743 1.05674,-2.01765c0.95107,-2.12384 1.90214,-4.88483 1.90214,-7.8582c0,-0.42477 0,-0.74334 0,-1.06192c-0.4227,-3.07957 -1.90214,-5.73436 -3.48725,-7.64582c-0.21135,-0.21238 -0.31702,-0.53096 -0.31702,-0.84954c0,-0.31858 0.10567,-0.63715 0.31702,-0.84954c0.21135,-0.31858 0.52837,-0.42477 0.95107,-0.42477c0.21135,0 0.52837,0.10619 0.63405,0.21238c3.80427,2.76099 7.60855,5.73436 11.20147,8.81393l2.43051,2.12384c0.21135,0 0.4227,0.10619 0.52837,0.31858l2.53618,2.54861c0.21135,0.21238 0.31702,0.42477 0.52837,0.53096c0.21135,0.21238 0.4227,0.63715 0.4227,0.95573c0,0.21238 -0.10567,0.53096 -0.21135,0.74334c-0.95107,1.2743 -3.06455,4.99102 -3.17023,8.70774c0,0.10619 0,0.31858 0,0.53096l0,0c0,2.76099 1.16242,5.09721 2.00781,6.5839c0.31702,-0.42477 0.63405,-0.84954 0.95107,-1.38049c1.05674,-1.59288 2.00781,-3.71672 2.11349,-6.05294c0,-0.10619 0,-0.21238 0,-0.31858l0,0c0,-2.12384 -0.73972,-4.03529 -1.47944,-5.62817c-0.10567,-0.21238 -0.10567,-0.42477 -0.10567,-0.63715c0,-0.42477 0.21135,-0.74334 0.52837,-1.06192c0.21135,-0.21238 0.52837,-0.31858 0.73972,-0.21238c0.31702,0 0.63405,0.10619 0.84539,0.31858c5.81208,5.94675 10.99012,12.53065 15.63979,19.53931c0.10567,0.21238 0.21135,0.53096 0.21135,0.74334c0,0.31858 -0.10567,0.74334 -0.4227,0.95573c-1.37377,1.2743 -5.28371,5.41579 -6.44613,10.30062c-0.31702,1.38049 -0.4227,2.76099 -0.4227,4.14148l0,0c0,2.44241 0.4227,4.56625 0.73972,5.84056c0.52837,-0.42477 1.26809,-0.95573 2.00781,-1.69907c1.79646,-1.69907 3.80427,-4.14148 4.64967,-7.11486c0.31702,-1.16811 0.4227,-2.33622 0.4227,-3.39814c0,-1.80526 -0.31702,-3.61053 -0.84539,-4.99102c0,-0.10619 -0.10567,-0.31858 -0.10567,-0.42477c0,-0.53096 0.21135,-0.95573 0.73972,-1.16811c0.21135,-0.10619 0.31702,-0.10619 0.52837,-0.10619c0.4227,0 0.73972,0.21238 1.05674,0.63715c2.53618,4.14148 4.96669,8.38916 7.08018,12.74303l1.47944,3.18576c0.10567,0.10619 0.21135,0.21238 0.21135,0.31858l1.47944,3.39814c0.10567,0.31858 0.21135,0.53096 0.21135,0.63715c0.10567,0.21238 0.10567,0.31858 0.10567,0.53096c0,0.42477 -0.21135,0.84954 -0.63405,1.16811c-1.26809,0.84954 -4.64967,3.18576 -6.12911,6.47771c-0.84539,1.80526 -1.05674,3.82291 -1.05674,5.41579l-0.4227,0l0.4227,0c0,0.63715 0,1.16811 0.10567,1.69907c0.4227,-0.21238 0.84539,-0.53096 1.37377,-0.84954c1.58511,-0.95573 3.38158,-2.54861 4.33264,-4.56625c0.63405,-1.48669 0.95107,-3.07957 0.95107,-4.67244c0,-0.42477 0,-0.95573 0,-1.2743c0,0 0,-0.10619 0,-0.10619c0,-0.63715 0.4227,-1.16811 0.95107,-1.2743c0.10567,0 0.21135,0 0.31702,0c0.52837,0 0.95107,0.31858 1.16242,0.84954c3.06455,7.8582 5.28371,16.14117 6.76315,24.53033c0,0.10619 0,0.10619 0,0.21238c0,0.53096 -0.31702,1.06192 -0.84539,1.2743c-1.69079,0.53096 -6.9745,2.54861 -9.93338,6.37152c-2.43051,3.07957 -3.48725,7.00867 -3.80427,9.13251c0.73972,-0.10619 1.58511,-0.31858 2.53618,-0.63715c2.21916,-0.74334 5.07236,-2.01765 7.08018,-4.35387c2.21916,-2.33622 2.95888,-5.41579 3.17023,-7.8582c0,-0.63715 0.52837,-1.16811 1.16242,-1.16811c0,0 0.10567,0 0.10567,0c0.63405,0 1.16242,0.42477 1.26809,1.16811c0.63405,4.88483 1.05674,9.87585 1.16242,14.86687l0.10567,3.9291l-0.52837,3.39814z" fill="#FFFFFF"/>
    </g>
   </g>
   <path stroke="null" id="svg_57" d="m294.78982,260.95417c0,2.6548 -2.21916,4.88483 -4.86102,4.88483l-180.49165,0c-2.64186,0 -4.86102,-2.23003 -4.86102,-4.88483l0,-112.24486c0,-2.6548 2.21916,-4.88483 4.86102,-4.88483l180.49165,0c2.64186,0 4.86102,2.23003 4.86102,4.88483l0,112.24486z" fill="#FFFFFF"/>
   <g stroke="null" id="svg_58">
    <g stroke="null" id="svg_59">
     <path stroke="null" id="svg_60" d="m198.94326,264.13993c0.21135,-0.42477 0.4227,-0.84954 0.52837,-1.2743c0.10567,-0.42477 0.21135,-0.95573 0.21135,-1.38049c0,-18.68978 0,-37.37956 0,-56.06933c0,-18.68978 0,-37.37956 0,-56.06933c0,-1.38049 -0.52837,-2.86718 -1.37377,-4.14148c-0.84539,-1.2743 -2.00781,-2.44241 -3.2759,-2.97337c-13.10361,-5.84056 -27.05261,-8.38916 -41.00162,-8.38916c-13.949,0 -27.89801,2.54861 -41.00162,8.38916c-1.26809,0.53096 -2.43051,1.69907 -3.2759,2.97337c-0.84539,1.2743 -1.37377,2.76099 -1.37377,4.14148c0,18.68978 0,37.37956 0,56.06933c0,18.68978 0,37.37956 0,56.06933c0,0.53096 0.10567,1.06192 0.21135,1.48669c0.10567,0.42477 0.31702,0.84954 0.63405,1.16811c14.58305,-4.46006 29.69447,-6.5839 44.80589,-6.5839c15.21709,-0.10619 30.32851,2.12384 44.91156,6.5839z" fill="#FFFFFF"/>
     <path stroke="null" id="svg_61" d="m198.94326,264.13993c0.21135,-0.42477 0.4227,-0.84954 0.52837,-1.2743c0.10567,-0.42477 0.21135,-0.95573 0.21135,-1.38049c0,-18.68978 0,-37.37956 0,-56.06933c0,-18.68978 0,-37.37956 0,-56.06933c0,-1.38049 -0.52837,-2.86718 -1.37377,-4.14148c-0.84539,-1.2743 -2.00781,-2.44241 -3.2759,-2.97337c-13.10361,-5.84056 -27.05261,-8.38916 -41.00162,-8.38916c-13.949,0 -27.89801,2.54861 -41.00162,8.38916c-1.26809,0.53096 -2.43051,1.69907 -3.2759,2.97337c-0.84539,1.2743 -1.37377,2.76099 -1.37377,4.14148c0,18.68978 0,37.37956 0,56.06933c0,18.68978 0,37.37956 0,56.06933c0,0.53096 0.10567,1.06192 0.21135,1.48669c0.10567,0.42477 0.31702,0.84954 0.63405,1.16811c14.58305,-4.46006 29.69447,-6.5839 44.80589,-6.5839c15.21709,-0.10619 30.32851,2.12384 44.91156,6.5839z" fill="#FFFFFF"/>
    </g>
    <g stroke="null" id="svg_62">
     <path stroke="null" id="svg_63" d="m290.24582,264.13993c0.21135,-0.42477 0.4227,-0.84954 0.52837,-1.2743c0.10567,-0.42477 0.21135,-0.95573 0.21135,-1.38049c0,-18.68978 0,-37.37956 0,-56.06933c0,-18.68978 0,-37.37956 0,-56.06933c0,-1.38049 -0.52837,-2.86718 -1.37377,-4.14148c-0.84539,-1.2743 -2.00781,-2.44241 -3.2759,-2.97337c-13.10361,-5.84056 -27.05261,-8.38916 -41.00162,-8.38916c-13.949,0 -27.89801,2.54861 -41.00162,8.38916c-1.26809,0.53096 -2.43051,1.69907 -3.2759,2.97337c-0.84539,1.2743 -1.37377,2.76099 -1.37377,4.14148c0,18.68978 0,37.37956 0,56.06933c0,18.68978 0,37.37956 0,56.06933c0,0.53096 0.10567,1.06192 0.21135,1.48669c0.10567,0.42477 0.31702,0.84954 0.63405,1.16811c14.58305,-4.46006 29.69447,-6.5839 44.80589,-6.5839c15.21709,-0.10619 30.22284,2.12384 44.91156,6.5839z" fill="#FFFFFF"/>
     <path stroke="null" id="svg_64" d="m290.24582,264.13993c0.21135,-0.42477 0.4227,-0.84954 0.52837,-1.2743c0.10567,-0.42477 0.21135,-0.95573 0.21135,-1.38049c0,-18.68978 0,-37.37956 0,-56.06933c0,-18.68978 0,-37.37956 0,-56.06933c0,-1.38049 -0.52837,-2.86718 -1.37377,-4.14148c-0.84539,-1.2743 -2.00781,-2.44241 -3.2759,-2.97337c-13.10361,-5.84056 -27.05261,-8.38916 -41.00162,-8.38916c-13.949,0 -27.89801,2.54861 -41.00162,8.38916c-1.26809,0.53096 -2.43051,1.69907 -3.2759,2.97337c-0.84539,1.2743 -1.37377,2.76099 -1.37377,4.14148c0,18.68978 0,37.37956 0,56.06933c0,18.68978 0,37.37956 0,56.06933c0,0.53096 0.10567,1.06192 0.21135,1.48669c0.10567,0.42477 0.31702,0.84954 0.63405,1.16811c14.58305,-4.46006 29.69447,-6.5839 44.80589,-6.5839c15.21709,-0.10619 30.22284,2.12384 44.91156,6.5839z" fill="#FFFFFF"/>
    </g>
   </g>
   <g stroke="null" id="svg_65">
    <g stroke="null" id="svg_66">
     <g stroke="null" id="svg_67">
      <path stroke="null" id="svg_68" d="m217.11923,156.88609c0,0.31858 0,0.63715 0,0.95573c18.59867,-6.05294 38.67678,-6.05294 57.27545,0c0,-0.31858 0,-0.63715 0,-0.95573c-18.59867,-6.05294 -38.57111,-6.05294 -57.27545,0z" fill="#718254"/>
     </g>
     <g stroke="null" id="svg_69">
      <path stroke="null" id="svg_70" d="m217.11923,166.65575c0,0.31858 0,0.63715 0,0.95573c18.59867,-6.05294 38.67678,-6.05294 57.27545,0c0,-0.31858 0,-0.63715 0,-0.95573c-18.59867,-6.05294 -38.57111,-6.05294 -57.27545,0z" fill="#718254"/>
     </g>
     <g stroke="null" id="svg_71">
      <path stroke="null" id="svg_72" d="m217.11923,176.4254c0,0.31858 0,0.63715 0,0.95573c18.59867,-6.05294 38.67678,-6.05294 57.27545,0c0,-0.31858 0,-0.63715 0,-0.95573c-18.59867,-6.15913 -38.57111,-6.15913 -57.27545,0z" fill="#718254"/>
     </g>
     <g stroke="null" id="svg_73">
      <path stroke="null" id="svg_74" d="m217.11923,186.08887c0,0.31858 0,0.63715 0,0.95573c18.59867,-6.05294 38.67678,-6.05294 57.27545,0c0,-0.31858 0,-0.63715 0,-0.95573c-18.59867,-6.05294 -38.57111,-6.05294 -57.27545,0z" fill="#718254"/>
     </g>
     <g stroke="null" id="svg_75">
      <path stroke="null" id="svg_76" d="m217.11923,195.85852c0,0.31858 0,0.63715 0,0.95573c18.59867,-6.05294 38.67678,-6.05294 57.27545,0c0,-0.31858 0,-0.63715 0,-0.95573c-18.59867,-6.05294 -38.57111,-6.05294 -57.27545,0z" fill="#718254"/>
     </g>
     <g stroke="null" id="svg_77">
      <path stroke="null" id="svg_78" d="m217.11923,205.62818c0,0.31858 0,0.63715 0,0.95573c18.59867,-6.05294 38.67678,-6.05294 57.27545,0c0,-0.31858 0,-0.63715 0,-0.95573c-18.59867,-6.05294 -38.57111,-6.05294 -57.27545,0z" fill="#718254"/>
     </g>
     <g stroke="null" id="svg_79">
      <path stroke="null" id="svg_80" d="m217.11923,215.39784c0,0.31858 0,0.63715 0,0.95573c18.59867,-6.05294 38.67678,-6.05294 57.27545,0c0,-0.31858 0,-0.63715 0,-0.95573c-18.59867,-6.05294 -38.57111,-6.05294 -57.27545,0z" fill="#718254"/>
     </g>
     <g stroke="null" id="svg_81">
      <path stroke="null" id="svg_82" d="m217.11923,225.16749c0,0.31858 0,0.63715 0,0.95573c18.59867,-6.05294 38.67678,-6.05294 57.27545,0c0,-0.31858 0,-0.63715 0,-0.95573c-18.59867,-6.05294 -38.57111,-6.05294 -57.27545,0z" fill="#718254"/>
     </g>
     <g stroke="null" id="svg_83">
      <path stroke="null" id="svg_84" d="m217.11923,234.93715c0,0.31858 0,0.63715 0,0.95573c18.59867,-6.05294 38.67678,-6.05294 57.27545,0c0,-0.31858 0,-0.63715 0,-0.95573c-18.59867,-6.15913 -38.57111,-6.15913 -57.27545,0z" fill="#718254"/>
     </g>
     <g stroke="null" id="svg_85">
      <path stroke="null" id="svg_86" d="m217.11923,244.70681c0,0.31858 0,0.63715 0,0.95573c18.59867,-6.05294 38.67678,-6.05294 57.27545,0c0,-0.31858 0,-0.63715 0,-0.95573c-18.59867,-6.15913 -38.57111,-6.15913 -57.27545,0z" fill="#718254"/>
     </g>
    </g>
    <g stroke="null" id="svg_87">
     <g stroke="null" id="svg_88">
      <g stroke="null" id="svg_89">
       <path stroke="null" id="svg_90" d="m124.97127,226.12322c0,0.31858 0,0.63715 0,0.95573c18.59867,-6.05294 38.67678,-6.05294 57.27545,0c0,-0.31858 0,-0.63715 0,-0.95573c-18.59867,-6.05294 -38.67678,-6.05294 -57.27545,0z" fill="#718254"/>
      </g>
      <g stroke="null" id="svg_91">
       <path stroke="null" id="svg_92" d="m124.97127,235.89288c0,0.31858 0,0.63715 0,0.95573c18.59867,-6.05294 38.67678,-6.05294 57.27545,0c0,-0.31858 0,-0.63715 0,-0.95573c-18.59867,-6.15913 -38.67678,-6.15913 -57.27545,0z" fill="#718254"/>
      </g>
      <g stroke="null" id="svg_93">
       <path stroke="null" id="svg_94" d="m124.97127,245.55634c0,0.31858 0,0.63715 0,0.95573c18.59867,-6.05294 38.67678,-6.05294 57.27545,0c0,-0.31858 0,-0.63715 0,-0.95573c-18.59867,-6.05294 -38.67678,-6.05294 -57.27545,0z" fill="#718254"/>
      </g>
     </g>
     <path stroke="null" id="svg_95" d="m152.12956,151.36411c0,0 0.10567,0 0,0c2.11349,1.80526 4.1213,3.61053 6.23478,5.41579c-1.79646,1.59288 -2.21916,4.77864 -2.00781,8.28297c3.80427,0 7.71422,0.21238 9.19366,-2.23003c1.79646,2.01765 3.59293,4.24768 5.38939,6.26532c0,0 0,0.10619 0,0.10619c-1.58511,1.69907 -3.06455,3.61053 -4.64967,5.41579c-0.10567,0.21238 -0.63405,0.74334 -0.63405,0.74334c0,0 -0.63405,-0.53096 -0.73972,-0.63715c-1.90214,-1.38049 -4.96669,-1.59288 -8.45394,-1.48669c0,6.05294 0,12.42445 0,18.58359c0,2.97337 -0.10567,6.37152 0,9.2387c0.10567,1.48669 0.10567,2.97337 0.4227,4.24768c0.31702,1.2743 0.84539,2.12384 1.58511,2.97337c-2.00781,1.69907 -4.01562,3.50433 -6.02343,5.2034c-0.10567,0 -0.21135,0 -0.31702,0c-2.00781,-1.80526 -4.01562,-3.50433 -6.12911,-5.2034c0.31702,-0.31858 0.63405,-0.53096 0.95107,-0.84954c1.37377,-1.59288 1.26809,-4.67244 1.26809,-7.64582c0,-8.81393 0,-17.94643 0,-26.54798c-4.01562,0 -8.13692,-0.21238 -9.61636,2.23003c-1.69079,-2.01765 -3.48725,-4.14148 -5.28371,-6.15913c0,-0.10619 0,-0.10619 0,-0.21238c1.79646,-2.01765 3.48725,-4.14148 5.28371,-6.05294c1.79646,2.12384 5.60074,2.12384 9.61636,2.12384c0.10567,-3.07957 0,-5.73436 -1.26809,-7.43343c-0.10567,-0.10619 -0.95107,-0.74334 -0.95107,-0.84954c0,0 0.52837,-0.53096 0.73972,-0.63715c1.79646,-1.80526 3.80427,-3.39814 5.38939,-4.88483z" fill="#718254" clip-rule="evenodd" fill-rule="evenodd"/>
    </g>
   </g>
  </g>
 </g>
</svg>