<svg height="512pt" viewBox="-75 0 512 512" width="512pt" xmlns="http://www.w3.org/2000/svg"><path d="m361.761719 323.457031-110.59375-180.863281-70.289063 31.839844-70.285156-31.839844-110.59375 180.863281 84.878906 70.558594v117.984375h192v-117.984375zm0 0" fill="#f39ee5" stroke-width="2" stroke="#000"/><path d="m180.878906 144c-35.292968 0-64-28.703125-64-64v-16c0-35.296875 28.707032-64 64-64 35.296875 0 64 28.703125 64 64v16c0 35.296875-28.703125 64-64 64zm0 0" fill="#ecce93"/><path d="m180.878906 112c-32.558594 0-59.199218-24.511719-63.183594-56-.335937 2.65625-.816406 5.265625-.816406 8v16c0 35.296875 28.707032 64 64 64 35.296875 0 64-28.703125 64-64v-16c0-2.734375-.480468-5.34375-.816406-8-3.984375 31.488281-30.621094 56-63.183594 56zm0 0" fill="#e5bd76"/><path d="m180.878906 473.824219-96-79.808594v41.617187l80 66.496094 10.882813 9.054688h10.222656l10.894531-9.054688 80-66.496094v-41.617187zm0 0" fill="#2d2d2d"/><path d="m228.878906 272h-32v-32h-32v32h-32v32h32v80h32v-80h32zm0 0" fill="#2d2d2d"/></svg>