<svg width="400" height="400" xmlns="http://www.w3.org/2000/svg" xml:space="preserve" enable-background="new 0 0 1400 980" version="1.1">

 <g>
  <title>Layer 1</title>
  <rect id="svg_5" height="393.9" width="387.5" fill="#9F86B4" y="2.52861" x="5.51937"/>
  <polygon id="svg_50" points="155.34999084472656,56.749996185302734 186.05001831054688,170.6499786376953 116.64994049072266,74.84996032714844 178.14999389648438,175.44996643066406 84.8499526977539,103.54996490478516 172.45004272460938,182.94996643066406 62.8499755859375,140.0500030517578 168.75003051757812,191.34999084472656 51.64996337890625,181.1499786376953 167.75003051757812,200.44996643066406 52.25,223.5500030517578 169.25003051757812,209.5500030517578 64.95001220703125,264.25 173.45004272460938,217.6499786376953 88.7499771118164,300.25 179.14999389648438,224.5500030517578 121.2499771118164,327.25 186.95004272460938,229.6499786376953 160.45004272460938,343.949951171875 195.85000610351562,231.94996643066406 202.55001831054688,349.75 204.95004272460938,231.75001525878906 244.64999389648438,342.54998779296875 213.75003051757812,228.75001525878906 283.1500244140625,324.449951171875 221.14999389648438,223.6499786376953 314.85003662109375,295.75 227.25003051757812,216.6499786376953 336.85003662109375,259.449951171875 230.55001831054688,208.1499786376953 348.35003662109375,218.75001525878906 231.85000610351562,199.34999084472656 347.6500244140625,176.0500030517578 230.45004272460938,190.44996643066406 335.4500732421875,135.25001525878906 226.45004272460938,181.84999084472656 311.1500244140625,99.74998474121094 220.75003051757812,175.0500030517578 278.550048828125,72.74998474121094 212.64999389648438,170.34999084472656 239.55001831054688,55.749996185302734 204.05001831054688,167.94996643066406 197.25003051757812,50.25 195.05001831054688,168.1499786376953 " fill="#FFFFFF" clip-rule="evenodd" fill-rule="evenodd"/>
  <path id="svg_51" d="m195.99999,108.02778l-11.6,10l-8.7,7.3c-3,2.5 -4.5,3.8 -4.6,6.8c0,0 0,0.1 0,0.1c0,3.4 2.1,5.2 4.3,7.1c0,0 0.3,0.3 0.6,0.5c2.5,3.3 3.2,9.5 3.3,15.9c-9.1,0 -19.5,-0.8 -23.4,-5.4l-5,-5.8l-14.9,17l-11,12.6l-0.1,2.6l0,3.2l26.5,31l4.8,-7.5c3,-4.7 12.7,-5.1 23,-5.1c0,11.4 0,90.8 0,91c0,8.6 -0.1,18.2 -3.2,22.1l-0.8,0.7l-7.7,7.5l6,4.3l24,20.5l2.5,0l3.5,0l28.7,-25l-4.3,-5c-2.4,-2.8 -3.8,-5.2 -4.5,-8.1c-1,-3.8 -1.3,-8.5 -1.5,-13.8c-0.1,-3.5 -0.2,-7.1 -0.2,-10.8c0,-3.8 0,-7.7 0.1,-11.5l0.1,-11.1c0,0 0,-50.3 0,-60.9c7.9,0 15.7,0.9 20.2,4.2c0,0 1.1,0.9 1.1,0.9c1.9,1.6 3.6,3 6.5,2.6c2.7,-0.3 4,-1.8 6.2,-4.4l0.5,-0.6c0,0 6,-6.9 6,-6.9l12.6,-14.4l0.1,-2.6l0,-2.8l-12.1,-13.9l-15.3,-17.8l-4.6,8.2c-2.5,4.3 -11.7,4.9 -21,4.9c0.3,-11.2 3,-16.3 5.4,-18.5l5.4,-5l-14.2,-12.3l-18,-15.7l-4.7,3.9z" fill="#9F86B4" clip-rule="evenodd" fill-rule="evenodd"/>
  <path id="svg_52" d="m199.88741,113.02778c0,0 0.1,0 0.1,0c7.4,6.6 14.9,13 22.4,19.5c-6.5,5.9 -8,17.5 -7.5,30c14,0.1 28.3,0.6 33.3,-8.2c6.6,7.5 12.9,15.3 19.6,22.7c0,0.1 0,0.2 0,0.3c-5.8,6.2 -11.2,12.9 -17,19.6c-0.5,0.6 -2.2,2.7 -2.4,2.7c-0.1,0 -2.3,-1.9 -2.9,-2.3c-7,-5.1 -18.3,-5.8 -30.7,-5.3c0,21.9 0,44.9 0,67.4c0,10.8 -0.4,22.9 0,33.6c0.2,5.6 0.5,10.7 1.7,15.2c1.2,4.5 3.3,7.7 5.9,10.8c-7.4,6.3 -14.7,12.6 -21.9,19c-0.4,0 -0.7,0 -1.1,0c-7.4,-6.4 -14.7,-12.8 -22.2,-19c1,-1.3 2.4,-2 3.4,-3.2c4.8,-5.9 4.7,-16.8 4.7,-27.5c0,-31.9 0,-65.2 0,-96.3c-14.7,-0.2 -29.5,-0.8 -35.1,8.1c-6.4,-7.5 -12.7,-14.9 -19.2,-22.4c0,-0.3 0,-0.5 0,-0.8c6.5,-7.2 12.7,-14.8 19.3,-22.1c6.6,7.6 20.6,7.9 35,7.6c0.3,-11.1 -0.1,-20.9 -4.7,-26.8c-0.4,-0.6 -3.4,-2.8 -3.4,-3.2c0,-0.1 2,-1.8 2.7,-2.4c6.6,-5.7 14,-11.7 20,-17z" fill="#FFFFFF" clip-rule="evenodd" fill-rule="evenodd"/>
 </g>
</svg>