<?xml version="1.0" standalone="no"?>
<!DOCTYPE svg PUBLIC "-//W3C//DTD SVG 20010904//EN"
 "http://www.w3.org/TR/2001/REC-SVG-20010904/DTD/svg10.dtd">
<svg version="1.0" xmlns="http://www.w3.org/2000/svg"
 width="500.000000pt" height="462.000000pt" viewBox="0 0 500.000000 462.000000"
 preserveAspectRatio="xMidYMid meet">
<metadata>
Created by potrace 1.16, written by Peter Selinger 2001-2019
</metadata>
<g transform="translate(0.000000,462.000000) scale(0.100000,-0.100000)"
fill="#000000" stroke="none">
<path d="M2357 4564 c-4 -4 -7 -126 -7 -271 l0 -263 -267 -2 -268 -3 0 -145 0
-145 268 -3 267 -2 0 -268 c0 -147 3 -277 6 -289 4 -14 2 -23 -5 -23 -6 0 -11
7 -11 16 0 42 -161 237 -272 331 -106 89 -152 120 -279 187 -256 135 -509 202
-865 227 -189 13 -222 8 -281 -44 -20 -17 -42 -46 -49 -64 -12 -27 -14 -276
-14 -1412 0 -951 3 -1388 11 -1408 29 -77 109 -122 217 -123 276 -1 675 -72
896 -160 203 -80 424 -216 563 -345 46 -42 87 -74 93 -70 7 4 10 372 10 1111
l0 1104 130 0 130 0 0 -1104 c0 -739 3 -1107 10 -1111 6 -4 47 28 93 70 186
173 470 328 743 405 183 52 525 100 714 100 111 1 190 45 219 123 8 20 11 457
11 1408 0 1136 -2 1385 -14 1412 -17 43 -76 93 -125 108 -45 13 -302 -2 -459
-27 -493 -79 -908 -319 -1127 -651 -15 -24 -32 -43 -36 -43 -5 0 -9 121 -9
270 l0 270 268 2 267 3 0 145 0 145 -267 3 -268 2 -2 268 -3 267 -141 3 c-77
1 -143 -1 -147 -4z m1293 -1742 c0 -24 -8 -32 -65 -60 l-65 -32 2 -417 3 -418
95 3 c53 2 127 6 165 10 l70 7 17 55 c9 30 24 81 33 113 15 57 16 57 54 57 21
0 53 -3 71 -7 l33 -6 -7 -161 c-3 -89 -9 -173 -12 -188 l-6 -28 -448 0 c-399
0 -449 2 -454 16 -12 32 -4 42 64 73 l70 33 -2 436 -3 437 -25 7 c-14 4 -42
10 -62 13 -37 6 -38 7 -38 45 l0 40 255 0 255 0 0 -28z m-2326 -373 c77 -214
144 -393 149 -396 6 -3 15 1 22 10 6 9 74 187 150 396 l139 381 193 0 c110 0
193 -4 193 -9 0 -5 2 -16 5 -24 4 -9 -15 -23 -64 -46 l-69 -32 5 -362 c3 -199
8 -393 12 -432 l6 -70 73 -14 72 -13 0 -39 0 -39 -259 0 c-227 0 -260 2 -265
16 -12 32 -4 42 63 73 l69 32 4 327 c2 180 1 331 -4 336 -10 12 -23 -19 -169
-416 l-124 -337 -50 -11 c-27 -6 -70 -14 -95 -17 l-46 -5 -129 358 c-70 198
-134 372 -142 387 -23 46 -36 22 -27 -52 4 -36 6 -182 5 -323 l-3 -258 25 -9
c13 -5 45 -12 70 -16 47 -7 47 -8 47 -46 l0 -39 -230 0 -230 0 0 28 c0 23 9
32 68 62 l67 35 7 80 c3 44 8 237 10 430 l3 350 -62 13 c-62 14 -63 14 -63 48
l0 34 218 0 217 0 139 -391z"/>
<path d="M144 3291 c-48 -12 -97 -46 -119 -83 -20 -33 -20 -53 -23 -1496 -2
-1051 1 -1476 9 -1505 14 -52 66 -103 122 -118 35 -9 59 -8 144 10 388 81 675
112 1036 112 279 0 462 -17 676 -61 52 -10 98 -17 104 -13 15 9 -53 71 -148
135 -294 198 -653 305 -1077 324 -214 9 -299 33 -394 110 -49 40 -104 120
-130 189 -18 47 -19 109 -24 1225 l-5 1175 -70 2 c-38 1 -84 -2 -101 -6z"/>
<path d="M4687 3293 c-4 -3 -7 -526 -7 -1161 0 -1134 0 -1156 -20 -1223 -25
-83 -93 -178 -163 -225 -88 -60 -145 -75 -332 -85 -375 -20 -624 -77 -884
-200 -248 -118 -476 -301 -324 -260 58 16 275 49 397 61 142 14 529 14 693 0
227 -20 437 -51 676 -101 85 -18 109 -19 144 -10 55 15 108 66 122 116 15 57
15 2913 0 2970 -16 55 -67 101 -129 114 -56 12 -163 15 -173 4z"/>
</g>
</svg>
