<svg width="1000" height="1000" xmlns="http://www.w3.org/2000/svg" xml:space="preserve" enable-background="new 0 0 1400 980" version="1.1">

 <g>
  <title>Layer 1</title>
  <rect stroke="null" id="svg_6" height="1000" width="1000" fill="#645A73" y="0.38682" x="-0.39823"/>
  <g stroke="null" id="svg_96">
   <path stroke="null" id="svg_97" d="m501.31616,145.88505c0,0 0.23665,0 0.23665,0c14.67254,13.46762 29.58173,26.69037 44.49093,39.91313c-12.77931,12.24329 -16.09246,35.99528 -14.90919,61.70619c27.6885,0.24487 56.08697,1.22433 66.26308,-16.89574c13.25262,15.42655 25.79527,31.34282 39.04789,46.52451c0,0.24487 0,0.48973 0,0.7346c-11.35939,12.73302 -22.24546,26.69037 -33.8415,40.40286c-0.94662,1.22433 -4.49642,5.63191 -4.73308,5.63191c-0.23665,0 -4.49642,-3.91785 -5.67969,-4.65245c-13.96258,-10.52923 -36.20804,-11.75356 -61.0567,-11.01896c0,45.05531 0,92.31441 0,138.59405c0,22.03792 -0.94662,47.01424 0,69.05216c0.47331,11.50869 0.94662,22.03792 3.31315,31.34282c2.36654,9.3049 6.38965,15.91628 11.83269,22.28279c-14.67254,12.97789 -29.10843,25.95578 -43.54431,39.17853c-0.70996,0 -1.41992,0 -2.12988,0c-14.67254,-13.22275 -29.34508,-26.20064 -44.01762,-39.17853c2.12988,-2.69352 4.73308,-4.16272 6.62631,-6.61138c9.46615,-12.24329 9.46615,-34.52608 9.46615,-56.564c0,-65.62404 0,-133.9416 0,-198.09645c-29.10843,-0.24487 -58.45351,-1.71406 -69.81289,16.65088c-12.54266,-15.42655 -25.32196,-30.85309 -38.10127,-46.03477c0,-0.48973 0,-0.97946 0,-1.46919c13.01596,-14.93681 25.32196,-30.60823 38.33793,-45.30018c13.01596,15.67141 40.94112,16.16114 69.57624,15.67141c0.47331,-22.77252 0,-42.85152 -9.46615,-55.09481c-0.94662,-1.22433 -6.62631,-5.87678 -6.62631,-6.61138c0,-0.24487 4.02312,-3.67299 5.44304,-4.89732c12.77931,-11.75356 27.6885,-24.24172 39.28454,-35.26068z" fill="#ffffff" clip-rule="evenodd" fill-rule="evenodd"/>
   <g stroke="null" id="svg_98">
    <path stroke="null" id="svg_99" d="m385.82907,868.48408l109.33409,0l-10.17612,-188.54668c0,0 -19.87893,-25.22118 -79.5157,-77.62246c-59.87343,-52.40129 -90.63843,-105.04744 -114.30382,-81.54032c-23.66539,23.50712 44.49093,78.84679 59.87343,93.53874c15.3825,14.69195 0.70996,22.52766 -7.09962,16.16114c-8.04623,-6.36651 -69.81289,-61.95105 -73.3627,-93.78361c-3.78646,-31.83256 -19.40562,-94.51821 -48.51404,-119.98425c-29.10843,-25.46605 -39.9945,-2.44866 -31.94827,23.26225c8.04623,25.71091 31.71162,105.78203 31.71162,105.78203s8.51954,34.77095 48.04074,76.39814c39.5212,41.87206 122.1134,108.72042 122.1134,108.72042s2.83985,34.03635 -6.153,137.61459z" fill="#ffffff" clip-rule="evenodd" fill-rule="evenodd"/>
    <path stroke="null" id="svg_100" d="m615.14667,868.48408l-109.33409,0l10.17612,-188.54668c0,0 19.87893,-25.22118 79.5157,-77.62246c59.63678,-52.40129 90.63843,-105.04744 114.30382,-81.54032c23.66539,23.50712 -44.49093,78.84679 -59.87343,93.53874c-15.3825,14.69195 -0.70996,22.52766 7.09962,16.16114c8.04623,-6.36651 69.81289,-61.95105 73.3627,-93.78361c3.78646,-31.83256 19.40562,-94.51821 48.51404,-119.98425c29.34508,-25.46605 39.9945,-2.44866 31.94827,23.26225c-8.04623,25.71091 -31.71162,105.78203 -31.71162,105.78203s-8.51954,34.77095 -48.04074,76.39814c-39.5212,41.87206 -122.1134,108.72042 -122.1134,108.72042s-2.83985,34.03635 6.153,137.61459z" fill="#ffffff" clip-rule="evenodd" fill-rule="evenodd"/>
   </g>
  </g>
 </g>
</svg>