<svg width="400" height="400" xmlns="http://www.w3.org/2000/svg" xml:space="preserve" enable-background="new 0 0 1400 980" version="1.1">

 <g>
  <title>Layer 1</title>
  <rect stroke="null" id="svg_2" height="403.89991" width="401.24985" fill="#619E73" y="-3.10009" x="-0.30089"/>
  <g id="svg_7">
   <g id="svg_8">
    <g id="svg_9">
     <path id="svg_10" d="m718.2,918.9c0.5,0 0.9,0.4 0.9,0.4l-7.8,16.8c-0.9,0 -2.9,0.1 -3.4,0.1c-0.5,0 -0.9,-0.4 -0.9,-0.4l-2.7,-16.8c1.6,0 3.7,-0.1 4.3,-0.1c0.5,0 0.9,0.4 0.9,0.4l0.8,8.2c0.1,0.7 0.1,1.7 0,2.7c0.3,-1.1 0.6,-2.2 0.8,-2.9l3.3,-8.3c1.4,0 3.2,-0.1 3.8,-0.1l0,0z" fill="#5563A1"/>
    </g>
    <g id="svg_11">
     <path id="svg_12" d="m726.3,927.1c0,1.8 -1,3 -3.6,3.6l-2.7,0.5c0.2,1.1 0.9,1.7 2.1,1.7c1.5,0 2.4,-1.1 2.4,-1.1s0.7,0.4 0.7,1.3c0,1.5 -2.3,3.2 -5,3.2c-2.8,0 -4.5,-1.7 -4.5,-4.7c0,-3.4 2.4,-8 6.7,-8c2.4,0 3.9,1.4 3.9,3.5l0,0zm-4.5,1.8c0.6,-0.2 0.7,-0.6 0.7,-1.2c0,-0.5 -0.2,-1.3 -0.7,-1.3c-1.1,0 -1.5,1.7 -1.7,3l1.7,-0.5z" fill="#5563A1"/>
    </g>
    <g id="svg_13">
     <path id="svg_14" d="m733.4,923.6c2.2,0 3.8,1.1 3.8,2.6c0,1.9 -2.2,2.5 -2.2,2.5s-0.7,-2 -2.2,-2c-1,0 -1.6,1 -1.6,3.2c0,2 0.5,3 1.9,3c1.4,0 2.2,-0.9 2.2,-0.9s0.7,0.4 0.7,1.3c0,1.5 -2.2,3 -4.8,3c-2.8,0 -4.5,-1.7 -4.5,-4.6c-0.1,-3.5 2.4,-8.1 6.7,-8.1l0,0z" fill="#5563A1"/>
    </g>
    <g id="svg_15">
     <path id="svg_16" d="m743.8,920.9c0.5,0 0.9,0.4 0.9,0.4l-0.4,2.6l2.7,0l-0.6,1.9c-0.2,0.6 -0.5,1 -1.1,1l-1.4,0l-0.8,5c-0.1,0.8 0,1.2 0.6,1.2c0.5,0 1,-0.3 1,-0.3s0.8,0.4 0.8,1.2c0,1.2 -1.7,2.4 -3.9,2.4c-2.3,0 -3.3,-1.4 -2.9,-3.9l0.9,-5.6l-1.5,0l0.6,-2c0.2,-0.5 0.6,-0.9 1.1,-0.9l0.7,0l0.9,-2.4c0.9,-0.3 1.9,-0.6 2.4,-0.6l0,0z" fill="#5563A1"/>
    </g>
    <g id="svg_17">
     <path id="svg_18" d="m756.9,927.1c0,1.8 -1,3 -3.6,3.6l-2.7,0.5c0.2,1.1 0.9,1.7 2.1,1.7c1.5,0 2.5,-1.1 2.5,-1.1s0.7,0.4 0.7,1.3c0,1.5 -2.3,3.2 -5,3.2c-2.8,0 -4.5,-1.7 -4.5,-4.7c0,-3.4 2.4,-8 6.7,-8c2.4,0 3.8,1.4 3.8,3.5l0,0zm-4.5,1.8c0.6,-0.2 0.7,-0.6 0.7,-1.2c0,-0.5 -0.2,-1.3 -0.7,-1.3c-1.1,0 -1.5,1.7 -1.7,3l1.7,-0.5z" fill="#5563A1"/>
    </g>
    <g id="svg_19">
     <path id="svg_20" d="m767.8,927.1c0,1.8 -1,3 -3.6,3.6l-2.7,0.5c0.2,1.1 0.9,1.7 2.1,1.7c1.5,0 2.4,-1.1 2.4,-1.1s0.8,0.4 0.8,1.3c0,1.5 -2.3,3.2 -5,3.2c-2.8,0 -4.5,-1.7 -4.5,-4.7c0,-3.4 2.4,-8 6.7,-8c2.3,0 3.8,1.4 3.8,3.5l0,0zm-4.5,1.8c0.6,-0.2 0.7,-0.6 0.7,-1.2c0,-0.5 -0.2,-1.3 -0.7,-1.3c-1.1,0 -1.5,1.7 -1.7,3l1.7,-0.5z" fill="#5563A1"/>
    </g>
    <g id="svg_21">
     <path id="svg_22" d="m776.7,931.7c0,0 0.9,0.8 0.9,2.2c0,1.9 -1.6,2.4 -2.9,2.4c-1.7,0 -3,-0.8 -4.3,-1.3c-0.4,0.4 -0.7,0.8 -1.1,1.3c0,0 -1.9,0 -1.9,-1.4c0,-1.6 2.7,-4.4 5.6,-7.5c-0.3,-0.1 -0.7,-0.1 -0.9,-0.1c-1.6,0 -2.3,0.8 -2.3,0.8s-0.8,-1 -0.8,-2.2c0.1,-1.8 1.8,-2.2 3.1,-2.2c1.4,0 2.4,0.5 3.4,1l0.8,-1c0,0 2,0.1 2,1.4c0,1.6 -2.6,4.3 -5.4,7.3c0.6,0.2 1.2,0.3 1.7,0.3c1.4,-0.1 2.1,-1 2.1,-1l0,0z" fill="#5563A1"/>
    </g>
    <g id="svg_23">
     <path id="svg_24" d="m789.3,935.2c-0.7,4.3 -3.6,6.4 -7.3,6.4c-2.4,0 -4.1,-1.2 -4.1,-2.7c0,-0.9 0.8,-1.4 0.8,-1.4s0.8,0.7 2.4,0.7c1.5,0 3.5,-0.6 3.9,-2.9l0.3,-1.7c-1,1.4 -2.3,2.6 -4,2.6c-1.9,0 -2.7,-1.5 -2.2,-4.7l0.5,-3.4c0.3,-2.1 0.4,-3.8 0.4,-3.8c1.3,-0.2 3.1,-0.9 3.7,-0.9c0.5,0 0.9,0.4 0.9,0.4l-0.7,4.2l-0.6,3.9c-0.1,0.4 0,0.6 0.3,0.6c1.6,0 2.4,-4.5 2.4,-4.5c0.3,-2.1 0.4,-3.8 0.4,-3.8c1.3,-0.2 3.1,-0.9 3.7,-0.9c0.5,0 0.9,0.4 0.9,0.4l-0.7,4.2l-1,7.3z" fill="#5563A1"/>
    </g>
   </g>
   <g id="svg_25">
    <path id="svg_26" d="m608.9,924.3l4.2,0c0.9,0 1.7,0.1 2.2,0.2c0.7,0.2 1.2,0.5 1.7,1c0.5,0.5 0.8,1.1 1.1,1.8c0.2,0.7 0.4,1.6 0.4,2.7c0,0.9 -0.1,1.7 -0.3,2.4c-0.3,0.8 -0.7,1.5 -1.2,2c-0.4,0.4 -0.9,0.7 -1.6,0.9c-0.5,0.2 -1.2,0.2 -2,0.2l-4.3,0l0,-11.2l-0.2,0zm2.3,1.9l0,7.5l1.7,0c0.6,0 1.1,0 1.4,-0.1c0.4,-0.1 0.7,-0.3 0.9,-0.5c0.2,-0.2 0.4,-0.6 0.6,-1.1c0.2,-0.5 0.2,-1.2 0.2,-2.1s-0.1,-1.6 -0.2,-2s-0.4,-0.8 -0.7,-1.1c-0.3,-0.3 -0.6,-0.4 -1.1,-0.5c-0.3,-0.1 -0.9,-0.1 -1.9,-0.1l-0.9,0z" fill="#5563A1"/>
    <path id="svg_27" d="m624.8,933l2.2,0.4c-0.3,0.8 -0.7,1.4 -1.3,1.8c-0.6,0.4 -1.4,0.6 -2.3,0.6c-1.4,0 -2.5,-0.5 -3.2,-1.4c-0.5,-0.7 -0.8,-1.7 -0.8,-2.8c0,-1.4 0.4,-2.4 1.1,-3.2c0.7,-0.8 1.6,-1.2 2.7,-1.2c1.2,0 2.2,0.4 2.9,1.2c0.7,0.8 1,2 1,3.7l-5.5,0c0,0.6 0.2,1.1 0.5,1.5c0.3,0.4 0.8,0.5 1.3,0.5c0.3,0 0.6,-0.1 0.9,-0.3s0.4,-0.3 0.5,-0.8zm0.1,-2.2c0,-0.6 -0.2,-1.1 -0.5,-1.4c-0.3,-0.3 -0.7,-0.5 -1.1,-0.5c-0.5,0 -0.9,0.2 -1.2,0.5c-0.3,0.3 -0.5,0.8 -0.5,1.4l3.3,0z" fill="#5563A1"/>
    <path id="svg_28" d="m627.8,933.3l2.2,-0.3c0.1,0.4 0.3,0.7 0.6,1c0.3,0.2 0.7,0.3 1.2,0.3c0.6,0 1,-0.1 1.3,-0.3c0.2,-0.1 0.3,-0.3 0.3,-0.6c0,-0.2 -0.1,-0.3 -0.2,-0.4c-0.1,-0.1 -0.4,-0.2 -0.7,-0.3c-1.8,-0.4 -2.9,-0.7 -3.3,-1.1c-0.7,-0.4 -1,-1.1 -1,-1.9c0,-0.7 0.3,-1.3 0.8,-1.8c0.6,-0.5 1.4,-0.7 2.6,-0.7c1.1,0 2,0.2 2.5,0.6c0.5,0.4 0.9,0.9 1.1,1.6l-2.1,0.4c-0.1,-0.3 -0.3,-0.6 -0.5,-0.7c-0.2,-0.2 -0.6,-0.3 -1,-0.3c-0.6,0 -1,0.1 -1.2,0.2c-0.2,0.1 -0.2,0.3 -0.2,0.4c0,0.2 0.1,0.3 0.2,0.4c0.2,0.1 0.9,0.3 2,0.6c1.2,0.3 2,0.6 2.4,1c0.5,0.4 0.7,0.9 0.7,1.6c0,0.8 -0.3,1.4 -0.9,1.9c-0.6,0.5 -1.6,0.8 -2.8,0.8c-1.1,0 -2,-0.2 -2.7,-0.7c-0.7,-0.3 -1.1,-0.9 -1.3,-1.7z" fill="#5563A1"/>
    <path id="svg_29" d="m637,926.3l0,-2l2.2,0l0,2l-2.2,0zm0,9.4l0,-8.2l2.2,0l0,8.2l-2.2,0z" fill="#5563A1"/>
    <path id="svg_30" d="m640.9,936.2l2.5,0.3c0,0.3 0.1,0.5 0.3,0.6c0.2,0.2 0.5,0.2 1,0.2c0.6,0 1,-0.1 1.3,-0.3c0.2,-0.1 0.3,-0.3 0.4,-0.6c0.1,-0.2 0.1,-0.5 0.1,-1l0,-1.2c-0.7,0.9 -1.5,1.3 -2.5,1.3c-1.1,0 -2,-0.5 -2.6,-1.4c-0.5,-0.7 -0.8,-1.7 -0.8,-2.8c0,-1.4 0.3,-2.4 1,-3.2c0.7,-0.7 1.5,-1.1 2.5,-1.1c1,0 1.9,0.4 2.5,1.3l0,-1.2l2,0l0,7.4c0,1 -0.1,1.7 -0.2,2.2c-0.2,0.5 -0.4,0.9 -0.7,1.1c-0.3,0.3 -0.7,0.5 -1.2,0.6c-0.5,0.2 -1.1,0.2 -1.8,0.2c-1.4,0 -2.4,-0.2 -3,-0.7c-0.6,-0.5 -0.9,-1.1 -0.9,-1.8c0.1,0.3 0.1,0.2 0.1,0.1zm2,-4.8c0,0.9 0.2,1.5 0.5,1.9c0.3,0.4 0.8,0.6 1.3,0.6c0.5,0 1,-0.2 1.3,-0.6c0.4,-0.4 0.5,-1 0.5,-1.8c0,-0.9 -0.2,-1.5 -0.5,-1.9c-0.4,-0.4 -0.8,-0.6 -1.3,-0.6c-0.5,0 -1,0.2 -1.3,0.6c-0.4,0.3 -0.5,0.9 -0.5,1.8z" fill="#5563A1"/>
    <path id="svg_31" d="m658,935.7l-2.2,0l0,-4.2c0,-0.9 0,-1.5 -0.1,-1.7c-0.1,-0.3 -0.2,-0.5 -0.5,-0.6c-0.2,-0.1 -0.5,-0.2 -0.8,-0.2c-0.4,0 -0.7,0.1 -1,0.3c-0.3,0.2 -0.5,0.5 -0.6,0.8c-0.1,0.3 -0.2,1 -0.2,1.9l0,3.7l-2.2,0l0,-8.2l2,0l0,1.2c0.7,-0.9 1.6,-1.4 2.7,-1.4c0.5,0 0.9,0.1 1.3,0.3c0.4,0.2 0.7,0.4 0.9,0.7c0.2,0.3 0.3,0.6 0.4,0.9c0.1,0.3 0.1,0.8 0.1,1.5l0,5l0.2,0z" fill="#5563A1"/>
    <path id="svg_32" d="m664.6,933l2.2,0.4c-0.3,0.8 -0.7,1.4 -1.3,1.8c-0.6,0.4 -1.4,0.6 -2.3,0.6c-1.4,0 -2.5,-0.5 -3.2,-1.4c-0.5,-0.7 -0.8,-1.7 -0.8,-2.8c0,-1.4 0.4,-2.4 1.1,-3.2c0.7,-0.8 1.6,-1.2 2.7,-1.2c1.2,0 2.2,0.4 2.9,1.2c0.7,0.8 1,2 1,3.7l-5.5,0c0,0.6 0.2,1.1 0.5,1.5c0.3,0.4 0.8,0.5 1.3,0.5c0.3,0 0.6,-0.1 0.9,-0.3c0.2,0 0.4,-0.3 0.5,-0.8zm0.2,-2.2c0,-0.6 -0.2,-1.1 -0.5,-1.4c-0.3,-0.3 -0.7,-0.5 -1.1,-0.5c-0.5,0 -0.9,0.2 -1.2,0.5c-0.3,0.3 -0.5,0.8 -0.5,1.4l3.3,0z" fill="#5563A1"/>
    <path id="svg_33" d="m675.9,935.7l-2,0l0,-1.2c-0.3,0.5 -0.7,0.8 -1.2,1c-0.5,0.2 -0.9,0.3 -1.4,0.3c-0.9,0 -1.8,-0.4 -2.4,-1.1c-0.7,-0.8 -1,-1.8 -1,-3.2c0,-1.4 0.3,-2.5 1,-3.2c0.7,-0.7 1.5,-1.1 2.5,-1.1c0.9,0 1.7,0.4 2.4,1.1l0,-4.1l2.2,0l0,11.5l-0.1,0zm-5.8,-4.3c0,0.9 0.1,1.5 0.4,1.9c0.4,0.6 0.8,0.9 1.5,0.9c0.5,0 0.9,-0.2 1.3,-0.6c0.4,-0.4 0.5,-1.1 0.5,-1.9c0,-0.9 -0.2,-1.6 -0.5,-2s-0.8,-0.6 -1.3,-0.6c-0.5,0 -0.9,0.2 -1.3,0.6c-0.4,0.2 -0.6,0.8 -0.6,1.7z" fill="#5563A1"/>
    <path id="svg_34" d="m681.7,935.7l0,-11.4l2.2,0l0,4.1c0.7,-0.8 1.5,-1.1 2.4,-1.1c1,0 1.8,0.4 2.5,1.1c0.7,0.7 1,1.8 1,3.1c0,1.4 -0.3,2.5 -1,3.2c-0.7,0.8 -1.5,1.1 -2.4,1.1c-0.5,0 -0.9,-0.1 -1.4,-0.4c-0.5,-0.2 -0.9,-0.6 -1.2,-1l0,1.2l-2.1,0l0,0.1zm2.2,-4.3c0,0.9 0.1,1.5 0.4,1.9c0.4,0.6 0.9,0.9 1.5,0.9c0.5,0 0.9,-0.2 1.2,-0.6c0.3,-0.4 0.5,-1.1 0.5,-1.9c0,-0.9 -0.2,-1.6 -0.5,-2c-0.3,-0.4 -0.8,-0.6 -1.3,-0.6c-0.5,0 -1,0.2 -1.3,0.6s-0.5,0.8 -0.5,1.7z" fill="#5563A1"/>
    <path id="svg_35" d="m690.2,927.4l2.3,0l2,5.8l1.9,-5.8l2.3,0l-2.9,7.9l-0.5,1.4c-0.2,0.5 -0.4,0.8 -0.5,1.1c-0.2,0.3 -0.4,0.5 -0.6,0.6c-0.2,0.2 -0.5,0.3 -0.8,0.4s-0.7,0.1 -1.1,0.1c-0.4,0 -0.8,0 -1.2,-0.1l-0.2,-1.7c0.3,0.1 0.6,0.1 0.9,0.1c0.5,0 0.9,-0.1 1.1,-0.4c0.2,-0.3 0.4,-0.7 0.6,-1.1l-3.3,-8.3z" fill="#5563A1"/>
   </g>
  </g>
  <g stroke="null" id="svg_101">
   <path stroke="null" id="svg_102" d="m110.81916,382.06678c0,0 -30.96252,-174.28318 95.50412,-282.91406c0,0 -111.63952,121.94183 -88.19958,278.17627l-5.77822,3.72255" fill="#FFFFFF"/>
   <path stroke="null" id="svg_103" d="m110.81916,315.51203c0,0 -21.80459,2.25609 -51.78591,-42.86577c0,0 38.15804,17.59753 51.78591,42.86577z" fill="#FFFFFF"/>
   <path stroke="null" id="svg_104" d="m113.65376,319.6858c0,0 -28.455,15.11582 -48.51522,-11.84449c0.10902,0.1128 26.05649,47.26515 48.51522,11.84449z" fill="#FFFFFF"/>
   <path stroke="null" id="svg_105" d="m111.4733,325.66445c0,0 9.26695,49.07002 38.26706,29.44201c0,-0.1128 -25.83844,0.67683 -38.26706,-29.44201z" fill="#FFFFFF"/>
   <path stroke="null" id="svg_106" d="m110.27405,314.38399c0,0 19.29707,35.75907 44.91746,22.56093c0,0.1128 -29.4362,-19.2896 -44.91746,-22.56093z" fill="#FFFFFF"/>
   <path stroke="null" id="svg_107" d="m111.25526,301.29865c0,0 39.35729,28.76519 67.3762,11.73168c0,0 -45.13551,-15.67985 -67.3762,-11.73168z" fill="#FFFFFF"/>
   <path stroke="null" id="svg_108" d="m114.19888,302.99072c0,0 -29.4362,-17.37192 -48.18815,-56.51513c0.10902,0 32.48885,26.39629 48.18815,56.51513z" fill="#FFFFFF"/>
   <path stroke="null" id="svg_109" d="m118.34175,286.52124c0,0 -36.52269,-16.69509 -55.92878,-64.74987c0,0 40.12045,36.66151 55.92878,64.74987z" fill="#FFFFFF"/>
   <path stroke="null" id="svg_110" d="m115.18008,290.24379c0,0 53.42126,15.67985 87.65447,-5.07621c0,0 -40.77459,8.57315 -86.12815,-5.07621l-1.52632,10.15242z" fill="#FFFFFF"/>
   <path stroke="null" id="svg_111" d="m114.74399,268.02127c0,0 67.15815,13.08534 106.18837,-14.439c0,0 -71.08298,-0.45122 -106.18837,14.439z" fill="#FFFFFF"/>
   <path stroke="null" id="svg_112" d="m118.23273,265.42677c0,0 -41.97384,-18.04874 -58.76338,-79.41447c0,-0.1128 49.27838,56.51513 58.76338,79.41447z" fill="#FFFFFF"/>
   <path stroke="null" id="svg_113" d="m120.19514,253.92069c0,0 61.05286,11.05486 124.72228,-33.8414c0,0 -76.64315,28.53958 -122.54182,22.44813l-2.18046,11.39327z" fill="#FFFFFF"/>
   <path stroke="null" id="svg_114" d="m117.90566,251.10058c0,0 -40.22948,-26.39629 -58.65436,-93.85347c0,0 39.46632,47.60356 58.65436,93.85347z" fill="#FFFFFF"/>
   <path stroke="null" id="svg_115" d="m125.97336,235.75914c0,0 73.5905,-2.4817 127.99297,-33.50298c0,0 -85.14694,6.76828 -127.99297,33.50298z" fill="#FFFFFF"/>
   <path stroke="null" id="svg_116" d="m124.7741,237c0,0 -43.1731,-33.61579 -59.96263,-109.75892c0,0 46.22574,65.20109 59.96263,109.75892z" fill="#FFFFFF"/>
   <path stroke="null" id="svg_117" d="m128.26284,226.84758c0,0 -37.39488,-47.15234 -45.5716,-102.31382c0,0 36.19563,49.97246 45.5716,102.31382z" fill="#FFFFFF"/>
   <path stroke="null" id="svg_118" d="m132.95083,215.11589c0,0 -38.9212,-70.3901 -52.98516,-120.47537c0,-0.1128 46.87988,65.87792 52.98516,120.47537z" fill="#FFFFFF"/>
   <path stroke="null" id="svg_119" d="m132.51473,216.01833c0,0 89.61688,-11.50607 127.22981,-30.23165c0,0 -82.20332,5.18901 -127.22981,30.23165z" fill="#FFFFFF"/>
   <path stroke="null" id="svg_120" d="m134.04106,204.96347c-0.21805,0.1128 83.0755,-9.13718 131.59072,-31.02128c-0.10902,0 -67.59424,-3.15853 -131.59072,31.02128z" fill="#FFFFFF"/>
   <path stroke="null" id="svg_121" d="m143.08996,189.17082c0,0 74.78976,-8.79876 138.89526,-37.78956c0,0.1128 -76.20706,2.03048 -138.89526,37.78956z" fill="#FFFFFF"/>
   <path stroke="null" id="svg_122" d="m148.65013,172.81415c0,0 121.9967,-31.5853 162.98934,-53.69501c0,0.1128 -96.59435,10.60364 -162.98934,53.69501z" fill="#FFFFFF"/>
   <path stroke="null" id="svg_123" d="m140.25537,198.1952c0,0 -4.68799,-83.92666 -48.51522,-132.99668c0,0 23.65798,90.69494 48.51522,132.99668z" fill="#FFFFFF"/>
   <path stroke="null" id="svg_124" d="m145.48847,188.6068c0,0 1.4173,-64.07304 -17.44368,-112.46624c0,0 -4.14287,41.96333 17.44368,112.46624z" fill="#FFFFFF"/>
   <path stroke="null" id="svg_125" d="m154.53737,174.16781c0,0 14.60908,-76.93277 -11.12034,-115.62477c-0.10902,0 -5.34213,71.63095 11.12034,115.62477z" fill="#FFFFFF"/>
   <path stroke="null" id="svg_126" d="m164.1314,156.23187c0,0 21.47753,-82.4602 -5.66919,-127.35645c0,0 -7.19552,72.08217 5.66919,127.35645z" fill="#FFFFFF"/>
   <path stroke="null" id="svg_127" d="m163.15019,151.26846c0,0 96.70337,-18.83838 150.12463,-43.7682c0,0 -102.15452,27.18592 -139.98549,31.02128l-10.13914,12.74693z" fill="#FFFFFF"/>
   <path stroke="null" id="svg_128" d="m171.43593,142.92092c0,0 -6.43236,-54.59745 13.40983,-100.84736c0.10902,-0.1128 10.24816,52.67977 -13.40983,100.84736z" fill="#FFFFFF"/>
   <path stroke="null" id="svg_129" d="m184.30064,125.66181c0,0 0.10902,-65.20109 42.08287,-104.3443c0,0 -18.42488,68.69803 -42.08287,104.3443z" fill="#FFFFFF"/>
   <path stroke="null" id="svg_130" d="m191.82323,113.93012c0,0 6.10529,-58.2072 66.9401,-95.99676c-0.10902,-0.1128 -40.12045,56.62793 -66.9401,95.99676z" fill="#FFFFFF"/>
   <path stroke="null" id="svg_131" d="m200.43604,106.1466c0,0 37.39488,-59.78646 93.75975,-86.85958c0,0 -46.55281,52.90538 -93.75975,86.85958z" fill="#FFFFFF"/>
   <path stroke="null" id="svg_132" d="m200.43604,106.1466c0,0 69.01154,-64.97548 138.67722,-86.06995c0,0 -67.04913,59.22244 -138.67722,86.06995z" fill="#FFFFFF"/>
   <path stroke="null" id="svg_133" d="m188.22547,112.80208c0,0 82.74843,-44.78345 152.74118,-57.19196c0.10902,0 -86.78228,53.13099 -152.74118,57.19196z" fill="#FFFFFF"/>
   <path stroke="null" id="svg_134" d="m187.02622,117.87828c0,0 50.91373,-20.75606 148.59831,-35.87188c0,0 -92.88757,33.27737 -148.59831,35.87188z" fill="#FFFFFF"/>
   <path stroke="null" id="svg_135" d="m183.64651,125.549c0,0 57.78217,-16.80789 130.50049,-27.86275c0,0 -89.18079,35.75907 -130.50049,27.86275z" fill="#FFFFFF"/>
  </g>
 </g>
</svg>