<svg width="400" height="400" xmlns="http://www.w3.org/2000/svg" xml:space="preserve" enable-background="new 0 0 1400 980" version="1.1">

 <g>
  <title>Layer 1</title>
  <rect stroke="null" id="svg_1" height="400.56642" width="404.16605" fill="#CD7067" y="0.23512" x="-0.19828"/>
  <g stroke="null" id="svg_36">
   <path stroke="null" id="svg_37" d="m143.73,221.76131l0.92399,-33.68765c0.1155,-0.11305 0.231,-0.11305 0.34649,-0.11305l-19.51919,0c0.46199,0.11305 0.69299,0.11305 0.69299,0.11305l0,38.09644c0.92399,93.37584 -63.75499,94.5063 -63.75499,94.5063l0,5.20011l143.33322,0l0,-4.1827c-72.64834,0 -62.02251,-99.9325 -62.02251,-99.9325z" fill="#FFFFFF"/>
   <g stroke="null" id="svg_38">
    <path stroke="null" id="svg_39" d="m208.06248,344.41602c-49.31771,0 -98.75093,0 -148.18414,0c-5.65941,-3.84356 -5.65941,-13.00027 0,-16.95687c49.43321,0 98.75093,0 148.18414,0c5.65941,3.84356 5.65941,13.00027 0,16.95687z" fill="#FFFFFF"/>
    <path stroke="null" id="svg_40" d="m208.06248,344.41602c-49.31771,0 -98.75093,0 -148.18414,0c-5.65941,-3.84356 -5.65941,-13.00027 0,-16.95687c49.43321,0 98.75093,0 148.18414,0c5.65941,3.84356 5.65941,13.00027 0,16.95687z" fill="#FFFFFF"/>
   </g>
   <g stroke="null" id="svg_41">
    <path stroke="null" id="svg_42" d="m44.74808,55.58397c0,15.93946 0,31.87892 0,47.81838c0,10.17412 3.81144,30.86151 10.74133,42.84436c38.11439,64.6622 119.0786,64.6622 157.193,0c6.81439,-12.0959 10.74133,-32.67024 10.74133,-42.84436c0,-15.93946 0,-31.87892 0,-47.81838c-59.59705,3.16528 -119.1941,3.16528 -178.67566,0z" fill="#FFFFFF"/>
   </g>
   <path stroke="null" id="svg_43" d="m66.80823,140.59442c-5.77491,-10.17412 -9.00886,-27.47013 -9.00886,-36.06161l0,-39.79213c-2.42546,-0.11305 -4.73542,-0.22609 -7.16089,-0.33914l0,40.13126c0,8.59148 3.23395,25.88749 9.00886,36.06161c16.74723,28.48754 43.42731,42.05304 69.64539,40.69649c-23.79262,-1.2435 -47.23875,-14.809 -62.48451,-40.69649z" fill="#CD7067"/>
   <path stroke="null" id="svg_44" d="m134.14365,72.4278c0,0 0.1155,0 0,0c2.77196,2.37396 5.65941,4.74792 8.43137,7.12189c-2.42546,2.14787 -3.00295,6.33057 -2.77196,10.96544c5.19742,0 10.51033,0.22609 12.4738,-3.05224c2.54096,2.7131 4.85092,5.53924 7.27638,8.25234c0,0 0,0.11305 0,0.11305c-2.19447,2.26092 -4.15793,4.74792 -6.3524,7.12189c-0.231,0.22609 -0.80849,1.01741 -0.92399,1.01741c0,0 -0.80849,-0.67827 -1.03948,-0.79132c-2.65646,-1.92178 -6.81439,-2.14787 -11.43432,-1.92178c0,8.02625 0,16.39164 0,24.64399c0,3.9566 -0.1155,8.36539 0,12.32199c0.1155,2.03482 0.231,3.84356 0.57749,5.53924c0.46199,1.69569 1.27048,2.82615 2.19447,3.9566c-2.77196,2.26092 -5.42841,4.63488 -8.20037,7.00884c-0.1155,0 -0.231,0 -0.34649,0c-2.77196,-2.37396 -5.54391,-4.63488 -8.31587,-7.00884c0.34649,-0.45218 0.92399,-0.79132 1.27048,-1.13046c1.84797,-2.14787 1.73247,-6.10447 1.73247,-10.06108c0,-11.64372 0,-23.85267 0,-35.15725c-5.42841,-0.11305 -10.97233,-0.33914 -13.16679,2.93919c-2.42546,-2.7131 -4.73542,-5.4262 -7.16089,-8.1393c0,-0.11305 0,-0.22609 0,-0.22609c2.42546,-2.60005 4.73542,-5.4262 7.16089,-8.02625c2.42546,2.82615 7.62288,2.82615 13.05129,2.82615c0.1155,-4.06965 0,-7.68712 -1.73247,-9.83499c-0.1155,-0.22609 -1.27048,-1.01741 -1.27048,-1.13046c0,0 0.80849,-0.67827 1.03948,-0.90437c2.54096,-2.26092 5.31292,-4.52183 7.50738,-6.44361z" fill="#CD7067" clip-rule="evenodd" fill-rule="evenodd"/>
   <path stroke="null" id="svg_45" d="m219.4968,249.57058c12.3583,-13.90463 45.50628,-12.20895 76.80628,2.60005c-1.03948,-0.33914 -2.77196,-1.01741 -5.54391,-2.14787c-11.54982,-4.74792 -29.22103,-10.28717 -37.6524,-2.26092c-8.31587,8.02625 0.46199,11.07849 5.42841,7.68712c12.3583,-7.91321 25.52509,-4.29574 25.52509,-4.29574c7.16089,0.11305 11.78081,1.13046 12.8203,1.35655c6.3524,3.05224 12.5893,6.6697 18.5952,10.73935c-11.08782,-3.9566 -25.0631,-7.00884 -32.22399,-0.11305c-8.31587,8.02625 0.46199,11.07849 5.42841,7.68712c12.3583,-7.91321 25.52509,-4.29574 25.52509,-4.29574c2.30996,0 4.50443,0.22609 6.2369,0.33914c4.38893,3.27833 8.66236,6.89579 12.5893,10.73935c1.61697,1.58264 2.88745,3.05224 4.27343,4.52183c-9.93284,-2.93919 -20.67417,-4.1827 -26.79557,1.58264c-8.31587,8.02625 0.46199,11.07849 5.42841,7.68712c12.3583,-7.91321 25.52509,-4.29574 25.52509,-4.29574c0,0 0,0 0.1155,0c25.75609,31.65283 13.51328,54.48808 -23.21513,35.83552l-75.99779,-38.54862c0.34649,0.11305 -40.42436,-15.03509 -22.86864,-34.81811z" fill="#FFFFFF"/>
   <path stroke="null" id="svg_46" d="m312.58831,310.72837c-3.34945,-13.22636 -20.55867,-23.96571 -43.31181,-29.16582c2.65646,2.48701 4.61993,5.53924 5.65941,9.15671c4.38893,15.71337 -6.81439,13.90463 -10.27934,6.21752c-4.73542,-9.72194 -11.54982,-15.37423 -16.86273,-18.42647c-7.04539,-0.45218 -14.20627,-0.33914 -21.59816,0.33914c8.08487,3.27833 14.78376,8.25234 16.97823,16.16555c4.38893,15.71337 -6.81439,13.90463 -10.27934,6.21752c-5.89041,-12.20895 -15.13026,-17.97428 -20.55867,-20.34825c-4.73542,0.90437 -9.35535,2.03482 -13.97528,3.39137c-0.46199,0.11305 -0.92399,0.33914 -1.38598,0.45218c7.73838,3.27833 14.20627,8.25234 16.40074,15.93946c4.38893,15.71337 -6.81439,13.90463 -10.27934,6.21752c-4.61993,-9.49585 -11.20332,-15.14814 -16.51624,-18.31342c-38.11439,16.39164 -38.22989,42.50523 3.34945,42.50523l85.58414,0c0.1155,0.22609 43.42731,5.20011 37.07491,-20.34825z" fill="#FFFFFF"/>
   <path stroke="null" id="svg_47" d="m203.21155,307.1109c3.46494,7.68712 14.66827,9.3828 10.27934,-6.21752c-2.19447,-7.68712 -8.54686,-12.66113 -16.40074,-15.93946c-3.69594,1.2435 -7.16089,2.60005 -10.39483,3.9566c5.31292,3.05224 11.89631,8.70453 16.51624,18.20038z" fill="#CD7067"/>
   <path stroke="null" id="svg_48" d="m232.89458,301.34557c3.46494,7.68712 14.66827,9.3828 10.27934,-6.21752c-2.19447,-7.91321 -8.89336,-12.88722 -16.97823,-16.16555c-4.61993,0.45218 -9.23985,1.13046 -13.85978,2.03482c5.42841,2.37396 14.66827,8.1393 20.55867,20.34825z" fill="#CD7067"/>
   <path stroke="null" id="svg_49" d="m264.65658,297.04982c3.46494,7.68712 14.66827,9.3828 10.27934,-6.21752c-1.03948,-3.61747 -3.00295,-6.6697 -5.65941,-9.15671c-6.69889,-1.4696 -13.97528,-2.60005 -21.36716,-3.05224c5.19742,3.16528 12.01181,8.70453 16.74723,18.42647z" fill="#CD7067"/>
  </g>
 </g>
</svg>